<svg width="40" height="40" viewBox="0 0 40 40" fill="none" xmlns="http://www.w3.org/2000/svg">
<rect x="0.5" y="0.5" width="39" height="39" rx="7.5" fill="white"/>
<path fill-rule="evenodd" clip-rule="evenodd" d="M33.1826 4.80352C33.1826 4.80352 33.1772 31.0883 33.1772 31.7238C33.1772 33.9347 30.299 33.8727 30.299 33.8727C30.299 33.8727 24.7668 33.8727 22.6704 33.8727C21.1011 33.8727 20.1443 35.3136 20.1443 35.3136C20.1443 35.3136 19.297 33.8727 17.4447 33.8727C14.7503 33.8727 10.2967 33.8727 10.2967 33.8727C10.2967 33.8727 6.93335 34.0063 6.93335 31.9882C6.93335 30.844 6.93335 4.80005 6.93335 4.80005L33.1826 4.80352Z" fill="#D12E18"/>
<path fill-rule="evenodd" clip-rule="evenodd" d="M20.9722 19.7087L26.688 13.7283C26.688 13.7283 27.5427 12.9763 28.1579 13.0218C28.7731 13.0672 29.0503 13.2574 29.0503 13.2574C29.0503 13.2574 29.0527 13.8572 28.4466 14.4088C28.3206 14.1634 28.2891 14.121 28.2891 14.121C28.2891 14.121 27.1116 15.6724 26.7404 15.9266C27.4907 15.7044 28.388 15.4258 29.1816 14.8536C28.8843 14.7366 28.8403 14.7228 28.8403 14.7228C28.8403 14.7228 29.3486 14.213 29.5228 13.9639C29.6239 14.2847 29.6447 15.0514 29.0503 15.645C28.9564 15.5202 28.8403 15.3507 28.8403 15.3507C28.8403 15.3507 27.9211 16.6919 27.2918 17.2871C27.9667 17.1351 28.8755 16.7974 29.8642 16.0572C29.4598 15.9938 29.4179 15.9788 29.4179 15.9788C29.4179 15.9788 30.3366 15.091 30.3366 13.8331C30.3366 13.1291 29.6016 12.6032 29.6016 12.6032C29.6016 12.6032 29.252 12.0566 28.4466 12.0536C27.7994 12.0536 27.6067 12.263 27.6067 12.263C27.6067 12.263 27.9336 11.1088 27.6855 10.693C27.3451 10.1227 26.8454 10.0911 26.8454 10.0911C26.8454 10.0911 26.4191 9.51538 25.4018 9.51538C24.3843 9.51538 23.5643 10.4312 23.5643 10.4312L23.4331 10.248C23.4331 10.248 22.997 10.6654 22.567 12.5246C23.0558 12.0088 23.5706 11.4408 24.2731 10.9807C23.9631 10.8418 23.9582 10.8499 23.9582 10.8499C23.9582 10.8499 24.4964 10.1702 25.2466 10.1702C25.3947 10.1702 25.6934 10.2463 25.6934 10.2463C25.6934 10.2463 25.3404 10.4491 24.9556 11.0068C24.7807 10.7556 24.7719 10.7452 24.7719 10.7452C24.7719 10.7452 24.1442 11.5136 23.8531 13.1264C24.3087 12.7056 25.1851 11.9575 25.7694 11.5826C25.3187 11.4259 25.2968 11.4255 25.2968 11.4255C25.2968 11.4255 25.7796 10.7832 26.268 10.7975C26.4407 10.8026 26.6776 10.9008 26.7331 11.1548C26.7886 11.409 26.8374 12.1486 26.3731 12.6816C26.0074 13.1012 22.4328 16.7542 20.8914 18.2818" fill="white"/>
<path d="M21.0203 19.7549L20.9239 19.6628L26.6398 13.6824C26.6796 13.6469 27.5314 12.9108 28.1627 12.9554C28.7887 13.0017 29.076 13.1944 29.0879 13.2025L29.1167 13.2222L29.1168 13.2572C29.117 13.2829 29.1122 13.8932 28.4912 14.4581L28.4268 14.5168L28.3871 14.4393C28.3391 14.3458 28.3052 14.2826 28.2818 14.2401C28.0783 14.5054 27.4192 15.3552 27.0062 15.7768C27.7146 15.5592 28.402 15.3076 29.0415 14.8704C28.8576 14.7986 28.8216 14.7869 28.8199 14.7864L28.7163 14.7529L28.7928 14.6757C28.7979 14.6706 29.299 14.167 29.4679 13.9257L29.5455 13.8149L29.5862 13.9438C29.6906 14.2753 29.7227 15.0673 29.0972 15.6921L29.043 15.7462L28.9968 15.685C28.9434 15.614 28.8828 15.5286 28.8402 15.4677C28.6523 15.737 28.0283 16.6154 27.5071 17.1652C28.255 16.964 28.9896 16.6058 29.6959 16.0978C29.4531 16.0581 29.4046 16.0449 29.3951 16.0416L29.2946 16.0053L29.3714 15.9309C29.3803 15.9222 30.2696 15.0468 30.2696 13.833C30.2696 13.171 29.5696 12.6624 29.5626 12.6574L29.5454 12.6393C29.5316 12.6182 29.2031 12.123 28.446 12.1204C27.8454 12.1204 27.6567 12.3069 27.6548 12.3089L27.4712 12.4974L27.5423 12.2449C27.5455 12.2337 27.8586 11.1137 27.628 10.7272C27.3094 10.1933 26.8456 10.158 26.841 10.1577L26.8103 10.1557L26.7918 10.1309C26.7876 10.1254 26.3698 9.58209 25.4016 9.58209C24.4252 9.58209 23.6218 10.4668 23.6138 10.4757L23.5583 10.5376L23.4294 10.3577C23.3123 10.5188 23.0043 11.0313 22.6898 12.2973C23.1143 11.8482 23.5574 11.3889 24.1354 10.9925C23.9804 10.9248 23.9499 10.916 23.9464 10.915L23.9611 10.8572L23.9007 10.8153C23.908 10.8033 23.9142 10.7937 23.9224 10.7878C24.0224 10.6696 24.5384 10.1034 25.2462 10.1034C25.401 10.1034 25.6968 10.1785 25.7094 10.1817L25.8678 10.2221L25.7263 10.3041C25.7228 10.3061 25.3802 10.5082 25.01 11.0446L24.9554 11.1238L24.9004 11.0449C24.8386 10.9561 24.7976 10.8977 24.7706 10.8592C24.6231 11.0721 24.2 11.7593 23.9562 12.942C24.3996 12.543 25.0959 11.9561 25.6195 11.6014C25.334 11.5033 25.289 11.4921 25.2843 11.491L25.1532 11.489L25.2431 11.3854C25.2635 11.3584 25.7414 10.7305 26.2515 10.7305C26.2575 10.7305 26.2635 10.7306 26.2696 10.7308C26.4895 10.7373 26.738 10.8665 26.7979 11.1405C26.8062 11.1782 26.9928 12.071 26.423 12.7253C26.0508 13.1522 22.4624 16.8182 20.9379 18.3289L20.844 18.2342C22.3674 16.7246 25.9515 13.0633 26.3224 12.6376C26.7435 12.1542 26.7323 11.4654 26.6676 11.1688C26.6167 10.936 26.391 10.8676 26.2656 10.864C26.2608 10.8638 26.256 10.8637 26.2512 10.8637C25.904 10.8637 25.5504 11.229 25.4112 11.3904C25.4815 11.413 25.5975 11.4522 25.7907 11.5194L25.9202 11.5644L25.8048 11.6385C25.2199 12.0138 24.3439 12.7632 23.8978 13.1752L23.7516 13.3102L23.787 13.1144C24.0778 11.5032 24.6936 10.7346 24.7198 10.7028L24.771 10.6401L24.8227 10.7022C24.8295 10.7105 24.8907 10.7977 24.9556 10.8906C25.1875 10.5713 25.4019 10.3784 25.5319 10.2774C25.4383 10.2577 25.3204 10.2365 25.2463 10.2365C24.6806 10.2365 24.2331 10.6501 24.0734 10.8197C24.1268 10.842 24.1996 10.8745 24.3002 10.9196L24.4114 10.9694L24.3094 11.0362C23.6658 11.4577 23.1875 11.9641 22.7251 12.454L22.4466 12.7481L22.5018 12.5093C22.9314 10.652 23.3684 10.2173 23.3868 10.1996L23.4424 10.1465L23.5715 10.3266C23.7774 10.1182 24.5084 9.44849 25.4018 9.44849C26.3351 9.44849 26.7851 9.91502 26.8802 10.0277C26.9992 10.0444 27.4331 10.1397 27.7427 10.6585C27.9468 11.0005 27.7944 11.7762 27.713 12.1169C27.846 12.0548 28.0762 11.9868 28.4464 11.9868C29.225 11.9896 29.5935 12.474 29.6503 12.5561C29.744 12.6257 30.4031 13.1401 30.4031 13.8329C30.4031 14.8896 29.7811 15.6794 29.549 15.9374C29.614 15.9492 29.716 15.9665 29.8744 15.9913L30.0306 16.0158L29.904 16.1105C29.0715 16.7336 28.1976 17.1514 27.3063 17.3521L27.0695 17.4054L27.2458 17.2386C27.8628 16.6552 28.776 15.3262 28.7851 15.3129L28.8402 15.2326L28.8952 15.3129C28.8954 15.3132 28.976 15.4308 29.0568 15.5416C29.4871 15.0721 29.5552 14.482 29.4907 14.1153C29.3308 14.312 29.0826 14.5705 28.9602 14.6958C29.012 14.7156 29.0898 14.7457 29.2059 14.7914L29.3195 14.8361L29.2204 14.9076C28.4508 15.4624 27.6171 15.7362 26.7592 15.9904L26.3534 16.1105L26.7027 15.8714C27.0608 15.6264 28.2242 14.096 28.2359 14.0805L28.2898 14.0096L28.3426 14.0812C28.3476 14.0881 28.3754 14.1284 28.4648 14.2994C28.8994 13.8701 28.9699 13.423 28.9814 13.2941C28.8948 13.247 28.6267 13.1233 28.153 13.0882C27.5728 13.0458 26.7403 13.7712 26.7319 13.7784L21.0203 19.7549Z" fill="#D12E18"/>
<path fill-rule="evenodd" clip-rule="evenodd" d="M19.3876 18.2509L12.6708 11.661C12.6708 11.661 12.4603 11.2378 12.8547 10.9806C13.2489 10.7236 13.586 10.5409 14.2459 10.6666C14.9057 10.7924 15.2171 11.0592 15.2171 11.0592L14.9021 11.3994C14.9021 11.3994 15.9717 11.7626 17.002 12.5245C16.7339 11.8102 16.2229 10.8266 15.6896 10.2217C15.5863 10.636 15.532 10.6928 15.532 10.6928C15.532 10.6928 14.8679 10.0829 13.9308 10.0124C13.428 10.0124 12.7341 10.117 11.9884 10.117C11.2427 10.117 10.3348 9.93384 10.3348 9.93384C10.3348 9.93384 10.5184 10.7064 10.5184 11.2946C10.5184 11.8828 10.3388 13.134 10.4397 13.6234C10.58 14.4252 11.0172 14.9581 11.0172 14.9581C11.0172 14.9581 10.8255 15.0766 10.6497 15.115C10.7255 15.2028 11.5192 15.937 12.8808 16.502C12.6137 16.1065 11.9836 15.1472 11.6471 14.33C11.4223 14.6773 11.3584 14.6962 11.3584 14.6962C11.3584 14.6962 11.06 14.2028 11.0435 13.6233C11.0268 13.044 11.264 12.5708 11.4371 12.3673C11.6101 12.1637 11.7423 12.0842 11.9096 12.1057C12.0715 12.1264 12.0956 12.2386 12.4608 12.6029C12.8028 12.9437 18.5484 18.9846 19.2859 19.7601" fill="white"/>
<path fill-rule="evenodd" clip-rule="evenodd" d="M14.2637 26.6302C14.5205 27.0064 14.6707 27.4612 14.6707 27.9511C14.6707 29.247 13.6203 30.2974 12.3245 30.2974C11.0287 30.2974 9.97827 29.247 9.97827 27.9511C9.97827 26.6554 11.0287 25.605 12.3245 25.605C12.6959 25.605 13.0472 25.6912 13.3592 25.8448" fill="white"/>
<path fill-rule="evenodd" clip-rule="evenodd" d="M26.0524 26.7397C25.8387 27.0933 25.7159 27.5078 25.7159 27.951C25.7159 29.2469 26.7663 30.2973 28.0622 30.2973C29.3579 30.2973 30.4084 29.2469 30.4084 27.951C30.4084 26.6553 29.3579 25.6049 28.0622 25.6049C27.6907 25.6049 27.2655 25.7225 26.9535 25.8761" fill="white"/>
<path d="M28.0622 30.3639C26.7316 30.3639 25.6492 29.2815 25.6492 27.951C25.6492 27.5107 25.769 27.0799 25.9955 26.7051L26.1095 26.7742C25.8956 27.1282 25.7826 27.5353 25.7826 27.9511C25.7826 29.2081 26.8051 30.2307 28.0622 30.2307C29.3192 30.2307 30.3418 29.2082 30.3418 27.9511C30.3418 26.6942 29.3192 25.6717 28.0622 25.6717C27.7278 25.6717 27.3142 25.773 26.9828 25.9359L26.924 25.8163C27.2726 25.6449 27.7086 25.5383 28.0622 25.5383C29.3927 25.5383 30.4751 26.6207 30.4751 27.9511C30.475 29.2815 29.3926 30.3639 28.0622 30.3639Z" fill="#D12E18"/>
<path fill-rule="evenodd" clip-rule="evenodd" d="M27.622 26.5742C27.7768 26.5177 27.8877 26.5061 28.0621 26.5061C28.8603 26.5061 29.5073 27.1532 29.5073 27.9512C29.5073 28.7494 28.8603 29.3964 28.0621 29.3964C27.264 29.3964 26.6169 28.7493 26.6169 27.9512C26.6169 27.7534 26.6567 27.5649 26.7285 27.3932" fill="#D12E18"/>
<path fill-rule="evenodd" clip-rule="evenodd" d="M13.6114 27.2928C13.7127 27.4902 13.7698 27.7141 13.7698 27.9512C13.7698 28.7494 13.1227 29.3964 12.3247 29.3964C11.5266 29.3964 10.8794 28.7493 10.8794 27.9512C10.8794 27.153 11.5266 26.5061 12.3247 26.5061C12.463 26.5061 12.5968 26.5256 12.7235 26.5618" fill="#D12E18"/>
<path d="M25.6932 10.2464C25.6932 10.2464 26.2038 9.97242 26.8455 10.0911L25.6932 10.2464Z" fill="white"/>
<path d="M25.7247 10.3051L25.6616 10.1876C25.6834 10.176 26.2007 9.90417 26.8575 10.0255L26.8332 10.1566C26.2216 10.0434 25.7296 10.3024 25.7247 10.3051Z" fill="#D12E18"/>
<path d="M29.0504 13.2573C29.0504 13.2573 29.362 13.3715 29.5229 13.9639L29.0504 13.2573Z" fill="white"/>
<path d="M29.4586 13.9812C29.3103 13.4356 29.0296 13.3207 29.0268 13.3196L29.0734 13.1947C29.0874 13.1999 29.4192 13.3279 29.5872 13.9463L29.4586 13.9812Z" fill="#D12E18"/>
<path fill-rule="evenodd" clip-rule="evenodd" d="M23.5643 10.4312C23.5643 10.4312 23.1892 10.8546 22.5959 12.484C23.4294 11.3126 23.958 10.85 23.958 10.85" fill="white"/>
<path d="M22.365 12.9235L22.5334 12.4611C23.1242 10.8386 23.4988 10.4046 23.5144 10.387L23.6144 10.4752C23.6111 10.479 23.311 10.8306 22.8318 12.0488C23.4904 11.1744 23.895 10.8166 23.9142 10.7998L24.002 10.9C23.9967 10.9047 23.4683 11.3731 22.6503 12.5226L22.365 12.9235Z" fill="#D12E18"/>
<path fill-rule="evenodd" clip-rule="evenodd" d="M24.9555 11.0068C24.9555 11.0068 24.4393 11.5867 23.8529 13.1264C24.6232 12.0684 25.2967 11.4255 25.2967 11.4255" fill="white"/>
<path d="M23.6129 13.5692L23.7907 13.1027C24.3747 11.5691 24.8843 10.9865 24.9056 10.9624L25.0053 11.0511C25.0008 11.0563 24.5956 11.5211 24.1023 12.6847C24.7351 11.8723 25.2449 11.3828 25.2508 11.3772L25.3428 11.4737C25.3361 11.4801 24.6644 12.1253 23.9069 13.1656L23.6129 13.5692Z" fill="#D12E18"/>
<path fill-rule="evenodd" clip-rule="evenodd" d="M29.6018 12.6032C29.6018 12.6032 28.6552 11.9283 27.6068 12.2629L29.6018 12.6032Z" fill="white"/>
<path d="M29.563 12.6575C29.5538 12.6511 28.6302 12.0062 27.627 12.3266L27.5864 12.1995C28.6547 11.8585 29.6004 12.5207 29.6403 12.549L29.563 12.6575Z" fill="#D12E18"/>
<path fill-rule="evenodd" clip-rule="evenodd" d="M28.4466 14.4087C28.4466 14.4087 27.7014 15.2794 26.7404 15.9264C28.3774 15.1718 28.8403 14.7227 28.8403 14.7227" fill="white"/>
<path d="M26.7684 15.987L26.7032 15.8711C27.6451 15.237 28.3885 14.3739 28.3959 14.3654L28.4972 14.452C28.4912 14.459 28.0132 15.0142 27.3364 15.5654C28.4412 15.0076 28.79 14.6786 28.7939 14.6748L28.8867 14.7706C28.8676 14.7892 28.3969 15.2362 26.7684 15.987Z" fill="#D12E18"/>
<path fill-rule="evenodd" clip-rule="evenodd" d="M29.418 15.9789C29.418 15.9789 28.9091 16.5793 27.2919 17.2872C28.5578 16.2906 29.0504 15.6449 29.0504 15.6449" fill="white"/>
<path d="M26.8407 17.5574L27.2506 17.2348C28.4954 16.2548 28.9924 15.6109 28.9974 15.6045L29.1034 15.6853C29.0855 15.7088 28.7015 16.2061 27.7504 17.0012C28.9526 16.4108 29.3627 15.9408 29.3672 15.9356L29.4688 16.0218C29.4476 16.0469 28.9314 16.6421 27.3186 17.3481L26.8407 17.5574Z" fill="#D12E18"/>
<path fill-rule="evenodd" clip-rule="evenodd" d="M19.1576 20.0432L12.7451 26.4595C12.7451 26.4595 12.6137 26.8587 12.9177 27.1627C13.2217 27.4668 13.616 27.2904 13.616 27.2904L19.6627 21.1287" fill="white"/>
<path fill-rule="evenodd" clip-rule="evenodd" d="M20.6123 21.1591L24.6144 25.2421C24.6144 25.2421 24.7487 25.4689 24.7193 25.6608C24.69 25.8527 24.0755 27.3821 23.8269 27.9897C23.5784 28.5975 23.4856 29.0627 23.4856 29.0627L24.0893 29.272C24.0893 29.272 24.4019 28.0511 25.8217 26.4981C25.9255 26.6259 26.7029 27.3804 26.7029 27.3804C26.7029 27.3804 27.0692 27.5929 27.4164 27.2603C27.7767 26.9149 27.6512 26.5651 27.5616 26.4744L26.7355 25.6617C26.7355 25.6617 27.4401 24.7673 29.3917 23.9861C29.166 23.4977 29.1555 23.4889 29.1555 23.4889C29.1555 23.4889 28.0139 23.6625 26.5305 24.274C26.3627 24.338 25.6277 24.5516 25.428 24.3524C25.258 24.1828 22.0619 21.0157 21.1197 20.0823" fill="white"/>
<path fill-rule="evenodd" clip-rule="evenodd" d="M21.0756 9.38559C21.0851 9.34039 21.0557 9.24546 21.0007 9.18546C20.9456 9.12532 20.8756 9.11039 20.8072 9.10532C20.7388 9.10026 20.5401 8.96519 20.5076 8.87506C20.4752 8.78492 20.5252 8.78999 20.6353 8.81999C20.7453 8.84999 20.8404 8.88506 20.8805 8.94506C20.9207 9.00506 21.0857 9.03519 21.0857 9.03519C21.1359 9.07532 21.246 9.02026 21.3211 9.03012C21.3961 9.04012 21.336 8.87999 21.4075 8.93506C21.4789 8.99012 21.5668 8.94386 21.5668 8.94386C21.6817 8.92679 21.6123 8.75839 21.6123 8.75839C21.6123 8.75839 21.7867 8.75199 21.8484 8.70599C21.9104 8.66012 21.8688 8.56012 21.8747 8.49666C21.8804 8.43319 21.7803 8.43546 21.7959 8.39199C21.8113 8.34866 21.7433 8.28732 21.7433 8.28732C21.7433 8.28732 21.8627 8.19799 21.8483 8.15652C21.8339 8.11506 21.7695 8.07799 21.7695 8.07799C21.7695 8.07799 21.8565 7.96666 21.8483 7.92106C21.84 7.87532 21.7695 7.86866 21.7695 7.86866C21.7695 7.86866 21.8199 7.78706 21.822 7.71159C21.8241 7.63626 21.7292 7.68186 21.7171 7.65932C21.7456 7.60359 21.7376 7.49092 21.6463 7.54972C21.7012 7.43706 21.6463 7.26559 21.6121 7.26679C21.5779 7.26786 21.4623 7.49346 21.1396 7.79012C21.0444 7.87772 20.8581 8.05706 20.8508 8.07799C20.8436 8.09892 20.8381 8.17159 20.8771 8.20879C20.9161 8.24612 21.0099 8.32266 20.9296 8.39199C20.8493 8.46132 20.6501 8.46159 20.6147 8.39199C20.5792 8.32252 20.7005 8.30532 20.6935 8.26119C20.6863 8.21692 20.5772 8.16626 20.5623 8.10412C20.5472 8.04199 20.4819 7.95852 20.5097 7.89479C20.5375 7.83106 20.5425 7.74172 20.6409 7.73786C20.7392 7.73399 20.786 7.85052 20.8247 7.79026C20.8632 7.72986 20.8772 7.68546 20.8772 7.68546C20.8772 7.68546 20.9368 7.73519 20.9823 7.71159C21.0276 7.68812 21.038 7.61506 21.0084 7.58079C20.9788 7.54652 20.9451 7.46346 20.9823 7.42386C21.0192 7.38426 21.0957 7.30959 21.166 7.34532C21.2361 7.38119 21.2033 7.50719 21.2709 7.50239C21.3111 7.49946 21.376 7.43466 21.3759 7.37159C21.3759 7.30839 21.3208 7.29906 21.3237 7.26666C21.3265 7.23426 21.3911 7.26066 21.426 7.22066C21.4612 7.18079 21.3791 7.17372 21.3791 7.17372C21.3791 7.17372 21.3604 7.11266 21.3135 7.09772C21.26 7.08079 21.22 7.14666 21.2008 7.11732C21.0751 6.92586 20.9492 7.09399 20.9993 7.16346C21.0288 7.20412 20.9876 7.29959 20.9191 7.31172C20.8505 7.32386 20.9075 7.24319 20.9041 7.19439C20.8948 7.06199 20.7633 7.03586 20.7457 7.00519C20.7283 6.97466 20.7423 6.89332 20.676 6.89879C20.6097 6.90426 20.6156 7.01012 20.6145 7.03132C20.6135 7.05252 20.5748 7.05506 20.5357 7.05746C20.4581 7.06239 20.5124 7.18306 20.4497 7.18812C20.3872 7.19319 20.3421 7.07799 20.3748 6.99546C20.4072 6.91279 20.3781 6.84826 20.3781 6.84826C20.3781 6.84826 20.3521 6.78012 20.2087 6.75759C20.2329 6.64572 20.1401 6.65759 20.1401 6.65759C20.1401 6.65759 20.0523 6.64572 20.0764 6.75759C19.9331 6.77999 19.8908 6.85519 19.8908 6.85519C19.8908 6.85519 19.8608 6.91626 19.8935 6.99892C19.926 7.08146 19.8804 7.19492 19.818 7.18999C19.7553 7.18492 19.8095 7.06346 19.7319 7.05839C19.6929 7.05586 19.6541 7.05292 19.6531 7.03172C19.6519 7.01052 19.6577 6.90439 19.5915 6.89892C19.5252 6.89332 19.5391 6.97452 19.5217 7.00519C19.5041 7.03572 19.3728 7.06199 19.3633 7.19439C19.3599 7.24332 19.4168 7.32386 19.3483 7.31172C19.2797 7.29946 19.2387 7.20412 19.2681 7.16346C19.3183 7.09399 19.1925 6.92599 19.0667 7.11732C19.0473 7.14666 19.0076 7.08079 18.954 7.09772C18.9069 7.11252 18.8884 7.17372 18.8884 7.17372C18.8884 7.17372 18.8064 7.18079 18.8413 7.22066C18.8763 7.26066 18.9407 7.23439 18.9437 7.26666C18.9465 7.29906 18.8916 7.30839 18.8916 7.37159C18.8915 7.43466 18.9563 7.49946 18.9965 7.50239C19.0641 7.50719 19.0313 7.38119 19.1015 7.34532C19.1716 7.30946 19.2483 7.38426 19.2852 7.42386C19.3221 7.46346 19.2885 7.54652 19.2591 7.58079C19.2293 7.61506 19.2399 7.68812 19.2852 7.71159C19.3305 7.73519 19.3903 7.68546 19.3903 7.68546C19.3903 7.68546 19.4041 7.72986 19.4427 7.79026C19.4813 7.85066 19.5281 7.73399 19.6265 7.73786C19.7249 7.74172 19.73 7.83119 19.7577 7.89479C19.7855 7.95852 19.7203 8.04199 19.7052 8.10412C19.6901 8.16626 19.5809 8.21692 19.574 8.26119C19.5669 8.30532 19.6881 8.32239 19.6528 8.39199C19.6172 8.46159 19.418 8.46132 19.3377 8.39199C19.2575 8.32266 19.3513 8.24612 19.3904 8.20879C19.4293 8.17159 19.4239 8.09892 19.4165 8.07799C19.4093 8.05706 19.2231 7.87772 19.1279 7.79012C18.8052 7.49332 18.6895 7.26786 18.6553 7.26679C18.6212 7.26559 18.5661 7.43706 18.6212 7.54972C18.5297 7.49092 18.5217 7.60359 18.5504 7.65932C18.5383 7.68186 18.4432 7.63626 18.4453 7.71159C18.4475 7.78706 18.4979 7.86866 18.4979 7.86866C18.4979 7.86866 18.4275 7.87532 18.4192 7.92106C18.4109 7.96666 18.4979 8.07799 18.4979 8.07799C18.4979 8.07799 18.4336 8.11506 18.4192 8.15652C18.4048 8.19799 18.5241 8.28732 18.5241 8.28732C18.5241 8.28732 18.456 8.34852 18.4716 8.39199C18.4871 8.43532 18.3871 8.43319 18.3928 8.49666C18.3985 8.56026 18.3571 8.66012 18.4191 8.70599C18.4809 8.75199 18.6552 8.75839 18.6552 8.75839C18.6552 8.75839 18.5857 8.92679 18.7005 8.94386C18.7005 8.94386 18.7884 8.99012 18.8599 8.93506C18.9313 8.87999 18.8713 9.04026 18.9464 9.03012C19.0213 9.02012 19.1316 9.07519 19.1816 9.03519C19.1816 9.03519 19.3468 9.00519 19.3869 8.94506C19.4269 8.88492 19.522 8.84999 19.6321 8.81999C19.7423 8.78986 19.7923 8.78492 19.7597 8.87506C19.7273 8.96519 19.5285 9.10026 19.4601 9.10532C19.3919 9.11039 19.3219 9.12532 19.2668 9.18546C19.2117 9.24546 19.1816 9.34066 19.1917 9.38559C19.2019 9.43052 19.1467 9.33052 19.0216 9.32546L18.5135 8.93252L18.4384 8.90999L18.4535 8.97999L18.8916 9.38626C18.8916 9.38626 18.8305 9.45692 18.9703 9.49092C18.9237 9.58279 18.9155 9.69359 18.944 9.72652C18.9727 9.75946 19.1016 9.83119 19.1016 9.83119C19.1016 9.83119 19.1408 9.94546 19.1804 9.96199C19.22 9.97852 19.2451 9.95946 19.2592 9.90959C19.2732 9.85972 19.2432 9.70012 19.2432 9.70012L19.4892 9.65132C19.4892 9.65132 19.6803 9.60839 19.7477 9.50319C19.8152 9.39799 19.8411 9.23239 19.9629 9.27759C20.2131 9.37039 19.8307 9.76359 19.7049 9.77879C19.5792 9.79399 19.4359 9.95826 19.4427 10.0667C19.4496 10.1751 19.6313 10.1539 19.6528 10.2236C19.7593 10.5711 19.4335 10.8675 19.5291 11.0348C19.6253 11.2023 19.7212 11.2443 19.7212 11.2443V11.3751C19.7212 11.3751 19.6871 11.4943 19.6871 11.6891C19.6871 11.8839 19.9793 11.9959 19.9793 11.9959C19.9793 11.9959 19.8369 12.0713 19.8913 12.2909C19.9456 12.5104 19.9996 13.0519 19.956 13.704C19.9124 14.356 19.758 16.1797 19.752 16.8453C19.7461 17.5109 19.8517 17.8276 19.8517 17.8276H19.3656C19.3656 17.8276 19.4911 17.7941 19.4696 18.0231C19.4479 18.252 19.2867 18.5584 19.2857 18.742C19.2849 18.9256 19.4875 19.0725 19.7269 19.0953C19.6036 19.1239 19.4847 19.1789 19.4876 19.2872C19.4907 19.3955 19.6533 19.4169 19.6533 19.4169C19.6533 19.4169 19.1283 19.7039 19.1283 20.2764C19.1283 20.8488 19.7319 21.0069 19.7319 21.0069C19.7319 21.0069 19.6549 21.086 19.6532 21.1892C19.6513 21.2924 19.7691 21.3633 19.8107 21.4243C19.8523 21.4851 19.9107 21.6725 19.8895 22.1041C19.8683 22.5357 19.6052 24.2867 19.5481 25.0856C19.4911 25.8845 19.5195 26.2276 19.6795 26.6276C19.4356 26.6276 19.3083 26.6276 19.3083 26.6276C19.3083 26.6276 19.5665 26.6935 19.522 26.8387C19.4821 26.9691 19.3991 27.3699 19.4696 27.5592C19.54 27.7484 19.7303 27.9869 19.924 28.0052C19.7139 28.0515 19.6628 28.1355 19.6628 28.2285C19.6628 28.3216 19.7547 28.4212 19.8632 28.4151C19.7699 28.5269 19.7057 28.9873 19.7057 29.3809C19.7057 29.7744 19.8479 30.1173 19.8479 30.1173C19.8479 30.1173 19.6725 30.1355 19.6532 30.2688C19.6339 30.402 19.7581 30.4517 19.7581 30.4517C19.7581 30.4517 19.5219 30.5456 19.5219 30.8947C19.5219 31.2439 19.7129 31.4393 19.8632 31.4459C19.7419 31.4661 19.7109 31.6453 19.8369 31.7075C19.7768 31.7508 19.6785 31.8717 19.6785 32.0325C19.6785 32.1908 19.7531 32.4576 20.1296 32.4576C20.5064 32.4576 20.5889 32.1908 20.5889 32.0325C20.5889 31.8717 20.4969 31.7568 20.4367 31.7133C20.5627 31.6512 20.5288 31.4691 20.4076 31.4487C20.5579 31.4423 20.7475 31.2451 20.7475 30.8959C20.7475 30.5467 20.5105 30.4521 20.5105 30.4521C20.5105 30.4521 20.6345 30.4017 20.6152 30.2685C20.5959 30.1353 20.4203 30.1163 20.4203 30.1163C20.4203 30.1163 20.5624 29.772 20.5624 29.3785C20.5624 28.9851 20.4983 28.5223 20.4048 28.4103C20.5132 28.4164 20.6052 28.312 20.6052 28.2188C20.6052 28.1256 20.5519 28.03 20.3416 27.9839C20.5352 27.9655 20.7279 27.7097 20.7984 27.5205C20.8689 27.3312 20.7859 26.9688 20.7459 26.8384C20.7015 26.6933 20.9596 26.6273 20.9596 26.6273C20.9596 26.6273 20.8324 26.6273 20.5884 26.6273C20.7484 26.2273 20.7768 25.8841 20.7196 25.0851C20.6627 24.2861 20.3997 22.5737 20.3783 22.142C20.3571 21.7105 20.4155 21.5033 20.4571 21.4425C20.4987 21.3816 20.6163 21.3005 20.6147 21.1973C20.6131 21.0941 20.5359 21.0093 20.5359 21.0093C20.5359 21.0093 21.1396 20.8467 21.1396 20.2743C21.1396 19.7019 20.6145 19.4096 20.6145 19.4096C20.6145 19.4096 20.7772 19.3792 20.7801 19.2709C20.7832 19.1627 20.6643 19.0908 20.5408 19.0623C20.7803 19.0396 20.9821 18.8649 20.9821 18.6759C20.9821 18.4868 20.8199 18.2517 20.7983 18.0228C20.7768 17.7939 20.9021 17.8273 20.9021 17.8273H20.416C20.416 17.8273 20.5155 17.5107 20.5095 16.8452C20.5033 16.1796 20.3431 14.422 20.2995 13.7699C20.2559 13.1177 20.2975 12.5432 20.352 12.3237C20.4064 12.1043 20.2396 12.0121 20.2396 12.0121C20.2396 12.0121 20.4344 11.892 20.4344 11.6971C20.4344 11.5023 20.2543 11.3748 20.2543 11.3748V11.244C20.2543 11.244 20.496 11.202 20.5919 11.0347C20.6876 10.8673 20.4835 10.5709 20.5899 10.2235C20.6115 10.1537 20.8052 10.1749 20.8121 10.0665C20.8191 9.95812 20.6819 9.79399 20.5561 9.77866C20.4304 9.76332 20.0512 9.37026 20.3012 9.27746C20.4231 9.23226 20.4504 9.39786 20.518 9.50306C20.5856 9.60826 20.7775 9.65119 20.7775 9.65119L21.0237 9.69999C21.0237 9.69999 20.9937 9.85959 21.0079 9.90946C21.0219 9.95946 21.0471 9.97839 21.0867 9.96186C21.1264 9.94519 21.1656 9.83106 21.1656 9.83106C21.1656 9.83106 21.2945 9.75919 21.3231 9.72639C21.3231 9.72639 21.5796 9.67572 21.5796 9.50052C21.5796 9.32532 21.3743 9.32026 21.3743 9.32026L21.3751 9.23452L21.4497 9.16706L21.3728 9.10692L21.2929 9.17079L21.3751 9.23466L21.3743 9.32039C21.3743 9.32039 21.1916 9.37172 21.1916 9.47492C21.1916 9.57812 21.1333 9.58012 21.1333 9.58012C21.1333 9.58012 21.0439 9.53626 21.0756 9.38559Z" fill="#EDB400"/>
<path d="M20.1295 32.5242C19.7477 32.5242 19.6117 32.2702 19.6117 32.0325C19.6117 31.8914 19.6761 31.7796 19.736 31.7112C19.6996 31.6669 19.6828 31.609 19.6916 31.5486C19.696 31.5189 19.706 31.4917 19.7207 31.4681C19.5767 31.3821 19.4551 31.1766 19.4551 30.8946C19.4551 30.6493 19.5608 30.5145 19.642 30.4473C19.6039 30.404 19.5752 30.3414 19.5871 30.259C19.6023 30.1541 19.6835 30.0968 19.7592 30.0696C19.7167 29.9454 19.6389 29.6781 19.6389 29.3798C19.6389 29.0526 19.6819 28.6568 19.7623 28.4592C19.6603 28.417 19.5959 28.3165 19.5959 28.2244C19.5959 28.1237 19.6417 28.0476 19.7352 27.9942C19.5824 27.894 19.4591 27.7064 19.4068 27.5657C19.3283 27.355 19.4168 26.9204 19.4579 26.7858C19.4779 26.7204 19.3375 26.6437 19.284 26.6232L18.9488 26.4942H19.5827C19.4483 26.1214 19.4283 25.7948 19.4817 25.0473C19.5124 24.6168 19.6029 23.9196 19.6827 23.3045C19.7497 22.7869 19.8132 22.298 19.8229 22.1006C19.8471 21.6101 19.7652 21.4754 19.7557 21.4617C19.7451 21.4461 19.7283 21.4302 19.7107 21.4126C19.6576 21.3601 19.5849 21.2881 19.5867 21.1877C19.5876 21.1296 19.6064 21.0786 19.6273 21.0398C19.4492 20.9666 19.0616 20.7526 19.0616 20.2753C19.0616 19.835 19.3457 19.5556 19.5093 19.4312C19.4613 19.3998 19.4228 19.3526 19.4208 19.2849C19.4195 19.2372 19.4343 19.1642 19.518 19.103C19.3399 19.0281 19.2184 18.8836 19.2191 18.725C19.2196 18.6202 19.2635 18.4857 19.31 18.343C19.3511 18.2174 19.3933 18.0874 19.4033 17.9834C19.4144 17.8656 19.3813 17.8298 19.3623 17.8276L19.3655 17.6942H19.7639C19.7324 17.5622 19.6833 17.2794 19.6875 16.8114C19.6919 16.3301 19.7753 15.2524 19.8363 14.4654C19.8604 14.1541 19.8815 13.8821 19.8937 13.6996C19.9384 13.0324 19.8831 12.5012 19.8351 12.3069C19.8017 12.1722 19.8349 12.0741 19.8812 12.0113C19.7873 11.9545 19.6539 11.8461 19.6539 11.689C19.6539 11.5197 19.7012 11.4016 19.7213 11.3592V11.2866C19.6676 11.2576 19.5771 11.1936 19.5051 11.0678C19.4468 10.9658 19.4899 10.8438 19.5353 10.7146C19.5852 10.5732 19.6416 10.4129 19.5896 10.243C19.586 10.2449 19.5592 10.2353 19.5411 10.2292C19.4821 10.2097 19.3835 10.1769 19.3767 10.0708C19.3675 9.92263 19.5383 9.73183 19.6975 9.7125C19.7532 9.70583 19.9645 9.51943 19.9792 9.3953C19.9821 9.36997 19.9768 9.3537 19.9403 9.33997C19.9325 9.33717 19.9276 9.3365 19.9248 9.3365C19.9044 9.3365 19.8765 9.39637 19.8561 9.43997C19.8403 9.47397 19.8237 9.50877 19.8043 9.53903C19.7243 9.66357 19.5265 9.71117 19.5043 9.7161L19.32 9.75263C19.3285 9.81197 19.3353 9.88663 19.3239 9.92743C19.2977 10.0204 19.2391 10.0342 19.2065 10.0342C19.1899 10.0342 19.1727 10.0306 19.1553 10.0233C19.1064 10.0028 19.0709 9.93677 19.0479 9.87677C18.9997 9.84917 18.9223 9.80197 18.8943 9.76997C18.8507 9.71957 18.8544 9.61917 18.8835 9.52877C18.8493 9.50997 18.8272 9.48517 18.8175 9.4545C18.8119 9.43703 18.8112 9.41983 18.8136 9.40397L18.3933 9.01423L18.35 8.8133L18.5548 8.87943L18.5713 8.8921C18.5669 8.86703 18.5679 8.84117 18.5712 8.81783C18.5081 8.80997 18.4264 8.79357 18.3799 8.75917C18.306 8.70437 18.3164 8.61423 18.3235 8.55463C18.3257 8.53517 18.3281 8.5149 18.3269 8.50223C18.3204 8.42997 18.3749 8.3949 18.4029 8.37877C18.4027 8.34823 18.4149 8.31943 18.4303 8.29543C18.3651 8.23503 18.3404 8.18103 18.3567 8.13423C18.3663 8.1065 18.3859 8.08237 18.4061 8.06343C18.3725 8.01157 18.3459 7.9537 18.3541 7.90877C18.3604 7.87397 18.3805 7.84877 18.4061 7.83143C18.3927 7.79757 18.3804 7.75543 18.3792 7.71303C18.3781 7.6713 18.3944 7.64543 18.4084 7.63103C18.4275 7.61157 18.4508 7.6037 18.4696 7.6005C18.4688 7.57037 18.4745 7.54023 18.4895 7.5157C18.5005 7.49757 18.5157 7.48383 18.5337 7.47543C18.5248 7.38717 18.5476 7.29703 18.5769 7.24983C18.6028 7.20837 18.634 7.1997 18.6555 7.1997C18.7023 7.20117 18.7252 7.2313 18.7867 7.31183C18.7983 7.32703 18.8112 7.34397 18.8256 7.3625C18.8269 7.33677 18.8339 7.3161 18.8427 7.29957C18.8245 7.2925 18.8068 7.28157 18.7916 7.26397C18.7567 7.22423 18.7665 7.18623 18.7723 7.1717C18.7853 7.13917 18.8144 7.12277 18.8423 7.1145C18.8585 7.0853 18.8875 7.04863 18.9343 7.03383C18.9715 7.02197 19.012 7.03143 19.038 7.0441C19.0939 6.97703 19.1493 6.9617 19.1883 6.9617C19.2461 6.9617 19.2996 6.9961 19.3279 7.0513C19.3313 7.0581 19.3343 7.06503 19.3368 7.07183C19.3709 7.02183 19.4193 6.99357 19.4507 6.97503C19.4557 6.9721 19.4604 6.96943 19.4645 6.9669C19.4652 6.96343 19.4657 6.9597 19.4664 6.95597C19.4719 6.9253 19.4887 6.83157 19.5855 6.83157C19.6469 6.83623 19.7077 6.86783 19.7183 6.98997C19.7251 6.9905 19.7317 6.99103 19.7364 6.9913C19.7995 6.99543 19.8259 7.0353 19.8377 7.0717C19.8391 7.05597 19.838 7.03863 19.8319 7.0229C19.7897 6.91597 19.8271 6.83423 19.8315 6.8253C19.8381 6.81317 19.8824 6.74037 20.0068 6.70437C20.0095 6.6773 20.0185 6.65423 20.034 6.6349C20.0569 6.60637 20.0932 6.58997 20.1335 6.58997L20.1403 6.5901C20.1425 6.5901 20.1451 6.58997 20.148 6.58997C20.1901 6.58997 20.2279 6.60677 20.2516 6.63623C20.2668 6.65517 20.276 6.67783 20.2788 6.7041C20.4021 6.73943 20.4349 6.80863 20.4408 6.82383C20.4435 6.82943 20.4787 6.91357 20.4372 7.01917C20.4311 7.03477 20.4299 7.05183 20.4315 7.06757C20.4437 7.03197 20.4704 6.99423 20.5319 6.99023C20.5372 6.98997 20.5437 7.0205 20.5503 7.01997C20.5619 6.89743 20.6209 6.89357 20.6709 6.89357C20.6712 6.89357 20.6715 6.89357 20.6717 6.89357C20.7796 6.89357 20.7961 6.95597 20.8016 6.98663C20.8023 6.99037 20.8028 6.9785 20.8035 6.9821C20.8075 6.98463 20.8123 6.97943 20.8173 6.98237C20.8488 7.00077 20.8971 7.0253 20.9312 7.0753C20.9337 7.06837 20.9367 7.05957 20.9401 7.0529C20.9684 6.9977 21.0219 6.96237 21.0797 6.96237C21.1187 6.96237 21.1743 6.97717 21.2301 7.04437C21.2603 7.0301 21.2977 7.02223 21.3337 7.0337C21.3807 7.0485 21.4095 7.08503 21.4257 7.11423C21.4535 7.1225 21.4827 7.13903 21.4957 7.17143C21.5015 7.18597 21.5113 7.22423 21.4762 7.26397C21.4607 7.2817 21.4427 7.2925 21.4253 7.29943C21.4345 7.3165 21.4412 7.3369 21.4426 7.3621C21.4568 7.3437 21.4697 7.3269 21.4813 7.3117C21.5429 7.23103 21.566 7.2009 21.6103 7.19943H21.6104C21.6344 7.19943 21.6655 7.20823 21.6912 7.24957C21.7207 7.29677 21.7435 7.3869 21.7345 7.47517C21.7524 7.48343 21.7677 7.49717 21.7788 7.5153C21.7937 7.53983 21.7996 7.5701 21.7987 7.60023C21.8175 7.6033 21.8408 7.61117 21.8598 7.63077C21.8736 7.64503 21.89 7.6709 21.889 7.71277C21.8878 7.75517 21.8753 7.7973 21.862 7.83117C21.8876 7.84837 21.9079 7.87357 21.9141 7.9085C21.9224 7.95357 21.8957 8.0113 21.862 8.06317C21.8823 8.08223 21.9019 8.10623 21.9116 8.13397C21.9279 8.1809 21.9031 8.2349 21.8379 8.29517C21.8532 8.31903 21.8655 8.34783 21.8652 8.37837C21.8932 8.39463 21.9479 8.42957 21.9413 8.50197C21.9402 8.51477 21.9425 8.53503 21.9448 8.55463C21.9518 8.61423 21.9623 8.70423 21.8883 8.75903C21.8419 8.79343 21.7603 8.80983 21.6971 8.8177C21.7027 8.85703 21.7015 8.90317 21.6796 8.9417C21.6658 8.9661 21.6387 8.9965 21.5873 9.0073C21.5604 9.01877 21.484 9.03783 21.4236 9.01757C21.42 9.0301 21.4153 9.04103 21.4099 9.05063L21.5538 9.1629L21.4439 9.26237C21.5364 9.28437 21.6468 9.34997 21.6468 9.5001C21.6468 9.67183 21.4723 9.7589 21.3559 9.78717C21.3207 9.8173 21.2604 9.8537 21.2204 9.87663C21.1974 9.9365 21.1619 10.0026 21.1129 10.0232C21.0955 10.0305 21.0781 10.0341 21.0616 10.0341C21.0291 10.0341 20.9704 10.0202 20.9443 9.9273C20.9328 9.88663 20.9396 9.81197 20.9481 9.75263L20.7656 9.71637C20.7416 9.71103 20.5435 9.66357 20.4635 9.5389C20.444 9.50877 20.4276 9.4741 20.4117 9.44023C20.3912 9.39637 20.3631 9.33623 20.3424 9.33623C20.3396 9.33623 20.3345 9.33677 20.3268 9.3397C20.2901 9.35343 20.2848 9.36983 20.2877 9.3953C20.3024 9.51943 20.5131 9.70557 20.5687 9.71223C20.7271 9.73143 20.8968 9.92223 20.8873 10.0705C20.8805 10.1769 20.7803 10.2096 20.7204 10.229C20.7016 10.2352 20.6732 10.2444 20.6661 10.2509C20.6183 10.4138 20.6535 10.5738 20.6845 10.715C20.7144 10.8509 20.7401 10.9682 20.6835 11.0674C20.6049 11.2046 20.4647 11.2684 20.388 11.2941V11.3465C20.4348 11.3953 20.5348 11.5202 20.5348 11.6948C20.5348 11.8454 20.4287 11.9548 20.3508 12.0145C20.4071 12.0801 20.4529 12.1864 20.4171 12.3312C20.3615 12.5552 20.3249 13.128 20.3664 13.7485C20.3795 13.9445 20.4032 14.239 20.43 14.5732C20.4933 15.3618 20.5723 16.3433 20.5765 16.811C20.5808 17.2794 20.5335 17.5621 20.5033 17.6938H20.9212V17.8272C20.9212 17.8294 20.8631 17.865 20.8741 17.983C20.8839 18.0858 20.9213 18.2022 20.9621 18.3148C21.0092 18.4444 21.0512 18.5668 21.0512 18.6756C21.0512 18.8432 20.9233 18.9994 20.7431 19.0781C20.8123 19.1296 20.8496 19.1972 20.8475 19.2725C20.8455 19.3414 20.8047 19.3904 20.7552 19.4233C20.918 19.5473 21.2064 19.8296 21.2064 20.2732C21.2064 20.7513 20.8172 20.9672 20.6396 21.0406C20.6609 21.0805 20.6804 21.1328 20.6813 21.192C20.6829 21.2926 20.6097 21.3677 20.5563 21.4225C20.5389 21.4404 20.5225 21.4565 20.512 21.4717C20.4776 21.522 20.4248 21.7156 20.4448 22.122C20.4545 22.3186 20.5147 22.7785 20.5844 23.3109C20.6645 23.9221 20.7552 24.6149 20.7859 25.0468C20.8393 25.7942 20.8195 26.121 20.6849 26.4938H21.3155L20.9835 26.6226C20.9208 26.647 20.79 26.7217 20.8095 26.7853C20.8413 26.889 20.9432 27.322 20.8607 27.5436C20.8071 27.6876 20.6816 27.88 20.5273 27.9816C20.6428 28.0489 20.6716 28.1422 20.6716 28.2185C20.6716 28.3132 20.6051 28.4166 20.5061 28.4581C20.5861 28.6565 20.6288 29.0514 20.6288 29.3781C20.6288 29.6766 20.5509 29.9445 20.5084 30.0686C20.5843 30.096 20.6657 30.1534 20.6808 30.2584C20.6927 30.3408 20.664 30.4036 20.6259 30.447C20.7073 30.5144 20.8137 30.6494 20.8137 30.8953C20.8137 31.1781 20.6927 31.3841 20.5492 31.4702C20.5649 31.4949 20.5757 31.5233 20.5803 31.5541C20.5891 31.6144 20.5727 31.6721 20.5368 31.7162C20.5952 31.7834 20.6551 31.8918 20.6551 32.0318C20.6555 32.2593 20.5177 32.5242 20.1295 32.5242ZM20.1268 31.469L19.8743 31.5114C19.8423 31.5168 19.8271 31.5442 19.8236 31.5681C19.8217 31.5809 19.8192 31.6244 19.8664 31.6477L19.9659 31.6968L19.8759 31.7616C19.8396 31.7877 19.7452 31.8874 19.7452 32.0325C19.7452 32.1402 19.7827 32.3909 20.1296 32.3909C20.494 32.3909 20.5223 32.1165 20.5223 32.0325C20.5223 31.8938 20.4408 31.7985 20.3977 31.7674L20.3079 31.7026L20.4073 31.6536C20.4535 31.6308 20.4508 31.587 20.4489 31.5741C20.4455 31.55 20.4296 31.52 20.3967 31.5144L20.1268 31.469ZM20.1617 28.0128L19.9383 28.062C19.7295 28.108 19.7295 28.1968 19.7295 28.2316C19.7295 28.2866 19.7869 28.361 19.8539 28.361H19.9963L19.9144 28.463C19.8473 28.5436 19.7725 28.9393 19.7725 29.3836C19.7725 29.7582 19.9083 30.09 19.9096 30.0933L19.9436 30.1748L19.8549 30.1836C19.854 30.1837 19.7308 30.1985 19.7192 30.2782C19.7076 30.3586 19.78 30.3886 19.7831 30.3898L19.9381 30.4518L19.7828 30.5134C19.7755 30.5165 19.5885 30.5984 19.5885 30.8944C19.5885 31.2028 19.7496 31.374 19.866 31.3789L20.1695 31.392L20.4047 31.3818C20.5204 31.3769 20.6807 31.2052 20.6807 30.8957C20.6807 30.5996 20.4931 30.517 20.4851 30.5136L20.3367 30.451L20.4852 30.3901C20.4972 30.3849 20.56 30.3536 20.5491 30.2778C20.5375 30.1981 20.4141 30.1825 20.4129 30.1824L20.3247 30.1728L20.3584 30.0906C20.3597 30.0873 20.4956 29.753 20.4956 29.3784C20.4956 28.9333 20.4207 28.5334 20.3536 28.4529L20.2552 28.3436L20.4085 28.3608H20.4087C20.4799 28.3608 20.5384 28.2824 20.5384 28.2274C20.5384 28.1937 20.5384 28.0997 20.3272 28.0533L20.1617 28.0128ZM19.5304 26.6276C19.58 26.6817 19.6089 26.7485 19.5856 26.8248C19.5456 26.9558 19.4708 27.3549 19.532 27.5192C19.6016 27.7062 19.7783 27.9161 19.9303 27.9305L20.066 27.9433L20.3353 27.9177C20.4845 27.9036 20.6661 27.6848 20.7359 27.4974C20.7943 27.3406 20.7285 26.9761 20.6821 26.8248C20.6588 26.7485 20.6877 26.6817 20.7373 26.6276H20.4899L20.5264 26.5361C20.6831 26.1445 20.7092 25.8402 20.6531 25.0566C20.6225 24.6288 20.5321 23.938 20.4523 23.3286C20.3823 22.7933 20.3217 22.331 20.3116 22.1289C20.2861 21.6097 20.3743 21.4373 20.4019 21.3968C20.416 21.3762 20.4372 21.3537 20.4607 21.3297C20.5019 21.2874 20.5487 21.2396 20.5479 21.1944C20.5467 21.1189 20.4876 21.0534 20.4869 21.0529L20.4116 20.9721L20.5184 20.943C20.5411 20.9369 21.0729 20.7866 21.0729 20.2734C21.0729 19.7464 20.5871 19.4702 20.5823 19.4676L20.4221 19.3786L20.6023 19.3438C20.6367 19.3372 20.7125 19.3092 20.7136 19.2692C20.7156 19.2017 20.6208 19.1493 20.5259 19.1274L20.1261 19.0349L20.5345 18.9961C20.7411 18.9765 20.9155 18.83 20.9155 18.6761C20.9155 18.5908 20.8749 18.479 20.8321 18.3608C20.7884 18.2404 20.7432 18.1158 20.732 17.996C20.7257 17.9298 20.7301 17.8736 20.7448 17.8276H20.3225L20.3531 17.7389C20.354 17.7361 20.4487 17.4545 20.4428 16.8126C20.4385 16.3497 20.3599 15.3709 20.2967 14.5844C20.2697 14.2496 20.246 13.9544 20.2328 13.7578C20.19 13.117 20.2276 12.5392 20.2871 12.2996C20.3269 12.1385 20.22 12.0737 20.2077 12.0669L20.1107 12.0129L20.0255 12.0556C20.0159 12.0608 19.9244 12.1157 19.964 12.275C20.024 12.5176 20.0691 13.0696 20.0264 13.7085C20.0141 13.8914 19.9931 14.1638 19.9688 14.4758C19.908 15.2608 19.8247 16.3358 19.8204 16.8126C19.8147 17.454 19.9129 17.7354 19.914 17.7381L19.946 17.8273L19.5231 17.8276C19.5377 17.8734 19.5421 17.9298 19.5359 17.996C19.5247 18.1148 19.48 18.2518 19.4367 18.3844C19.3955 18.5109 19.3528 18.6417 19.3524 18.7256C19.3519 18.8682 19.5225 19.0005 19.7332 19.0205L20.1413 19.0592L19.7419 19.1518C19.6847 19.165 19.552 19.2042 19.5541 19.281C19.5553 19.3241 19.6452 19.3461 19.6628 19.3488L19.8589 19.3772L19.6855 19.4732C19.6805 19.476 19.1949 19.7505 19.1949 20.2753C19.1949 20.7882 19.7264 20.936 19.7489 20.942L19.8588 20.9713L19.7797 21.0529C19.7795 21.0533 19.7212 21.1156 19.7199 21.1901C19.7191 21.2337 19.7643 21.2785 19.8043 21.318C19.8288 21.3422 19.8511 21.3652 19.8656 21.3865C19.9008 21.4378 19.9803 21.6113 19.9559 22.1072C19.9459 22.31 19.8851 22.7788 19.8147 23.3217C19.7351 23.935 19.6449 24.6301 19.6145 25.0569C19.5587 25.8405 19.5847 26.1446 19.7412 26.5362L19.7779 26.6276H19.5304ZM19.9245 9.20343C19.9444 9.20343 19.9653 9.20743 19.9864 9.21517C20.0765 9.24863 20.1221 9.31997 20.1115 9.41103C20.0897 9.59503 19.8357 9.83023 19.7133 9.84503C19.6203 9.85623 19.5052 9.99157 19.5096 10.0625C19.5105 10.0764 19.534 10.0866 19.5829 10.1028C19.634 10.1197 19.6975 10.1409 19.7169 10.204C19.7819 10.4158 19.7148 10.6061 19.6611 10.7589C19.6244 10.8629 19.5928 10.9528 19.6208 11.0017C19.7012 11.1421 19.8048 11.1794 19.8092 11.1809L19.854 11.1965L19.8545 11.3926L19.8459 11.4078C19.8455 11.4086 19.7871 11.5162 19.7871 11.689C19.7871 11.8349 20.0188 11.9332 20.0211 11.934L20.1435 11.9837L20.2089 11.9489C20.2109 11.9478 20.4012 11.8464 20.4012 11.695C20.4012 11.5328 20.2791 11.4266 20.2779 11.4256L20.2545 11.4058V11.19L20.3079 11.1789C20.3096 11.1785 20.4885 11.14 20.5676 11.0017C20.5988 10.9472 20.5781 10.853 20.5541 10.7441C20.5213 10.5946 20.4804 10.4086 20.5431 10.2041C20.5627 10.1406 20.6272 10.1196 20.6791 10.1028C20.7211 10.089 20.7532 10.0774 20.7541 10.0625C20.7587 9.99143 20.6448 9.85623 20.5525 9.84517C20.4304 9.83037 20.1769 9.59543 20.1552 9.41143C20.1444 9.32023 20.19 9.24877 20.2803 9.2153C20.3013 9.20743 20.3221 9.20357 20.3421 9.20357C20.4476 9.20357 20.4945 9.3037 20.5321 9.38437C20.5455 9.41277 20.5589 9.4421 20.5752 9.46743C20.618 9.5341 20.75 9.57677 20.7928 9.58663L21.1017 9.64797L21.0895 9.71277C21.0768 9.77983 21.0691 9.85383 21.0711 9.88343C21.0804 9.8649 21.0937 9.83583 21.1025 9.80983L21.1108 9.7857L21.1331 9.77317C21.1951 9.73863 21.2604 9.69637 21.2727 9.68303L21.2873 9.6669L21.3099 9.66143C21.3119 9.66103 21.5128 9.61703 21.5128 9.5009C21.5128 9.4069 21.4156 9.39063 21.3823 9.38783C21.3273 9.4057 21.2581 9.44477 21.2581 9.47517C21.2581 9.60797 21.1779 9.64557 21.1355 9.6469L21.1189 9.64743L21.1041 9.6401C21.0985 9.63743 20.968 9.57117 21.01 9.37183C21.014 9.35263 20.9959 9.2793 20.9511 9.23037C20.9177 9.1941 20.8745 9.17703 20.8017 9.1717C20.7117 9.16517 20.4867 9.01477 20.4444 8.89757C20.4323 8.86383 20.4193 8.81437 20.4479 8.77397C20.4691 8.74383 20.5245 8.7209 20.6524 8.75557C20.7675 8.78703 20.8815 8.82717 20.9355 8.9081C20.9485 8.92703 21.0271 8.9569 21.0971 8.96957L21.1137 8.97263L21.1269 8.98317C21.1571 8.9833 21.1813 8.97863 21.2047 8.97423C21.2367 8.96823 21.2691 8.96263 21.2984 8.96237C21.2985 8.9613 21.2985 8.96023 21.2987 8.9593C21.3056 8.8913 21.334 8.8569 21.3829 8.8569C21.4112 8.8569 21.4333 8.87143 21.4475 8.88237C21.4772 8.9053 21.5353 8.8849 21.5357 8.88463L21.5563 8.87797C21.5696 8.86663 21.5649 8.82077 21.5499 8.7837L21.5141 8.69557L21.6091 8.69183C21.6835 8.68903 21.7811 8.6725 21.808 8.65263C21.82 8.64383 21.8151 8.60157 21.8115 8.57077C21.8087 8.54757 21.806 8.5237 21.8069 8.50023C21.8031 8.4977 21.7979 8.49477 21.7939 8.4925C21.7356 8.45943 21.7149 8.41797 21.7325 8.36943C21.7292 8.37197 21.7128 8.35023 21.698 8.33677L21.6388 8.2825L21.7028 8.2341C21.7312 8.21277 21.7612 8.18463 21.7756 8.16663C21.7652 8.1561 21.7485 8.1433 21.7357 8.13583L21.6692 8.09757L21.7164 8.03703C21.7425 8.00357 21.7682 7.9621 21.7778 7.93877C21.7722 7.9369 21.7659 7.93543 21.7625 7.93517L21.6564 7.92503L21.7121 7.83383C21.7217 7.8181 21.7444 7.7741 21.7522 7.73277L21.7391 7.73317C21.6906 7.73317 21.668 7.71023 21.6577 7.69103L21.6412 7.66023L21.6571 7.62917C21.6587 7.62623 21.6599 7.6229 21.6609 7.6193L21.4812 7.7349L21.5857 7.52063C21.6063 7.47837 21.6051 7.42237 21.5969 7.3797C21.5933 7.38437 21.5899 7.3889 21.5864 7.39357C21.5135 7.48903 21.3915 7.6489 21.1841 7.83943C21.0853 7.93037 20.9441 8.06783 20.9124 8.10557C20.9104 8.1225 20.9129 8.15157 20.9227 8.1609C20.9677 8.20303 21.0288 8.26023 21.0272 8.3353C21.0267 8.3633 21.0167 8.40477 20.9725 8.44277C20.9229 8.48543 20.8415 8.51103 20.7545 8.51103C20.6563 8.51103 20.5833 8.47877 20.5547 8.42263C20.5116 8.3381 20.5772 8.28263 20.6092 8.25943C20.6036 8.25477 20.5975 8.24957 20.5924 8.24517C20.5537 8.21183 20.5097 8.17397 20.4968 8.1201C20.4928 8.10357 20.4839 8.08543 20.4752 8.06623C20.4493 8.00943 20.4172 7.93863 20.448 7.86837C20.4529 7.85717 20.4568 7.8565 20.4611 7.8441C20.4807 7.7857 20.5135 7.6945 20.6377 7.6945C20.6379 7.6945 20.638 7.6945 20.6381 7.6945C20.7079 7.6945 20.754 7.71397 20.7853 7.73677C20.8049 7.70117 20.8129 7.67143 20.8131 7.67117L20.8435 7.5745L20.9192 7.63583C20.9299 7.64437 20.9471 7.6521 20.9544 7.6521C20.9564 7.64957 20.96 7.63063 20.9564 7.6237C20.908 7.5677 20.8661 7.44983 20.9329 7.37863C20.9335 7.3781 20.934 7.3773 20.9347 7.37677C20.9332 7.37703 20.9319 7.3773 20.9304 7.37757L20.9063 7.37983C20.8663 7.37983 20.8445 7.3589 20.8352 7.3465C20.8072 7.30943 20.8195 7.26663 20.8295 7.23237C20.8324 7.2221 20.8373 7.20503 20.8372 7.19903C20.8333 7.1441 20.7983 7.11957 20.7492 7.09077C20.7247 7.07637 20.7015 7.06277 20.6876 7.03863C20.6849 7.0341 20.6828 7.02957 20.6809 7.0249C20.6767 7.10717 20.6033 7.11957 20.554 7.12343C20.5533 7.12783 20.5528 7.1325 20.5523 7.13637C20.5485 7.1669 20.5385 7.24823 20.4548 7.25503C20.3992 7.25477 20.3643 7.23277 20.3363 7.1917C20.2949 7.13103 20.2852 7.0405 20.3124 6.97143C20.3333 6.9181 20.3175 6.87703 20.3165 6.87477C20.3164 6.87477 20.2931 6.83863 20.198 6.8237L20.1423 6.8149L20.0865 6.8237C19.9852 6.83957 19.9515 6.88437 19.948 6.88957C19.9487 6.88957 19.9359 6.9257 19.9553 6.9749C19.9827 7.04437 19.9732 7.1321 19.9316 7.19317C19.9036 7.2345 19.8645 7.25717 19.8217 7.25717C19.7287 7.24997 19.7185 7.1685 19.7148 7.13783C19.7143 7.13383 19.7137 7.1289 19.7129 7.12423C19.6655 7.1205 19.5899 7.1085 19.5861 7.0353C19.5861 7.03157 19.586 7.0281 19.5859 7.02477C19.584 7.02943 19.5819 7.0341 19.5793 7.03863C19.5653 7.0629 19.5421 7.0765 19.5177 7.0909C19.4685 7.1197 19.4336 7.14423 19.4296 7.19943C19.4296 7.2053 19.4344 7.22237 19.4375 7.23263C19.4473 7.2669 19.4596 7.30957 19.4316 7.34663C19.4223 7.35903 19.4005 7.37997 19.3604 7.37997L19.3364 7.3777C19.3349 7.37757 19.3336 7.37717 19.3321 7.3769C19.3327 7.37743 19.3332 7.3781 19.3339 7.37877C19.4004 7.4501 19.3587 7.5677 19.3093 7.62477C19.3067 7.63037 19.3103 7.6493 19.3157 7.65277C19.3203 7.65157 19.3393 7.6413 19.3475 7.6345L19.4239 7.57077L19.4537 7.6657C19.4537 7.6657 19.4617 7.6897 19.4813 7.7253C19.5127 7.7025 19.5585 7.67143 19.6216 7.67143C19.7533 7.67637 19.7861 7.77423 19.8057 7.83263C19.8099 7.8449 19.8139 7.85717 19.8188 7.8685C19.8493 7.93863 19.8173 8.0093 19.7916 8.06597C19.7829 8.08517 19.774 8.10343 19.77 8.1201C19.7569 8.17397 19.7131 8.21183 19.6744 8.24517C19.6693 8.24943 19.6635 8.2545 19.6577 8.25957C19.6896 8.28277 19.7549 8.33823 19.712 8.42263C19.6833 8.4789 19.6104 8.51117 19.512 8.51117C19.4251 8.51117 19.3435 8.4857 19.2939 8.4429C19.2497 8.40477 19.2399 8.36343 19.2392 8.33543C19.2377 8.26023 19.2988 8.20317 19.3353 8.16903C19.3525 8.15263 19.356 8.1225 19.3541 8.10557C19.3224 8.0677 19.1823 7.9313 19.0824 7.83943C18.8749 7.64863 18.7529 7.4889 18.6799 7.3933C18.6765 7.38877 18.6729 7.38423 18.6695 7.3797C18.6613 7.42237 18.6601 7.47837 18.6807 7.52063L18.7856 7.73517L18.6055 7.6193C18.6065 7.62277 18.6079 7.6261 18.6093 7.62903L18.6253 7.66023L18.6087 7.69103C18.5983 7.71023 18.5757 7.73317 18.5273 7.73317L18.5143 7.73277C18.5221 7.7745 18.5447 7.81823 18.5541 7.83383L18.6097 7.9249L18.5036 7.93517C18.4991 7.9357 18.4933 7.93717 18.4885 7.93877C18.4983 7.96223 18.5241 8.00437 18.5497 8.03717L18.5967 8.0973L18.5307 8.13597C18.5165 8.14423 18.5005 8.15677 18.4907 8.1669C18.5052 8.18503 18.5351 8.21303 18.5635 8.23437L18.6277 8.28263L18.5683 8.33703C18.5535 8.3505 18.5371 8.37223 18.5351 8.3809C18.5511 8.41837 18.5304 8.4597 18.4723 8.49263C18.4684 8.4949 18.4632 8.49783 18.4592 8.50037C18.4603 8.5237 18.4575 8.54757 18.4548 8.57063C18.4512 8.60143 18.4463 8.64383 18.4581 8.65263C18.4877 8.67463 18.5927 8.68957 18.6571 8.69197L18.7521 8.69543L18.7163 8.78383C18.7012 8.82103 18.6965 8.8669 18.7033 8.8769L18.7309 8.88503C18.7309 8.88503 18.7891 8.90517 18.8185 8.88237C18.8327 8.87143 18.8548 8.8569 18.8831 8.8569C18.932 8.8569 18.9604 8.8913 18.9675 8.9593C18.9676 8.96023 18.9676 8.9613 18.9677 8.96237C18.9971 8.96263 19.0296 8.96823 19.0616 8.97423C19.0851 8.97863 19.1081 8.98343 19.1283 8.98343L19.1413 8.9729L19.1689 8.9697C19.2392 8.95677 19.3179 8.9269 19.3308 8.9081C19.3845 8.8273 19.4987 8.78703 19.614 8.7557C19.7419 8.7209 19.7973 8.7441 19.8185 8.7741C19.8469 8.81463 19.834 8.86397 19.8219 8.8977C19.7797 9.01477 19.5545 9.16517 19.4644 9.17183C19.3919 9.1773 19.3485 9.19423 19.3153 9.2305C19.2705 9.2793 19.2521 9.35223 19.2561 9.37117L19.2624 9.40183L19.2235 9.46317L19.19 9.46383C19.1645 9.46383 19.1481 9.4513 19.1321 9.43917C19.1101 9.42237 19.0733 9.39437 19.0181 9.3921L18.9968 9.3913L18.9801 9.3785L18.9832 9.38143L18.9532 9.4161C18.9601 9.41917 18.9704 9.42277 18.9851 9.42637L19.0667 9.44623L19.0288 9.52117C18.9897 9.5985 18.9899 9.67237 18.9964 9.68743C19.0068 9.6977 19.0777 9.74237 19.1329 9.77303L19.1552 9.78543L19.1635 9.80957C19.1721 9.83463 19.1844 9.86183 19.1951 9.88103C19.1965 9.85037 19.1888 9.77823 19.1764 9.71263L19.1641 9.6477L19.4749 9.5861C19.516 9.57663 19.6476 9.53383 19.6904 9.4673C19.7067 9.44197 19.7201 9.4125 19.7335 9.38397C19.7725 9.30343 19.8192 9.20343 19.9245 9.20343ZM20.5831 8.87517C20.6297 8.93943 20.7699 9.03423 20.8121 9.03877C20.8843 9.0441 20.9765 9.0605 21.0497 9.14037C21.1151 9.21157 21.1559 9.3277 21.1408 9.3993C21.1399 9.40383 21.1455 9.40823 21.1447 9.41237C21.1768 9.33957 21.1877 9.29517 21.3211 9.27303V9.26717L21.1917 9.1717L21.2812 9.09757C21.2635 9.0993 21.2464 9.10237 21.2311 9.1053C21.1632 9.11783 21.1017 9.12183 21.0605 9.09823C21.0039 9.08677 20.8725 9.05317 20.8251 8.9821C20.7952 8.93743 20.6984 8.90637 20.6176 8.88437C20.6097 8.88197 20.5967 8.8785 20.5831 8.87517ZM19.0471 9.2605C19.0819 9.2645 19.1119 9.27423 19.1371 9.28557C19.1528 9.23357 19.1816 9.1801 19.2181 9.14037C19.2913 9.0605 19.3835 9.0441 19.4557 9.03877C19.498 9.03423 19.638 8.9397 19.6847 8.8753C19.6711 8.8785 19.6584 8.8821 19.6503 8.88423C19.5693 8.90623 19.4727 8.9373 19.4431 8.98197C19.3956 9.05303 19.2645 9.08663 19.2079 9.0981C19.1665 9.1217 19.106 9.11783 19.0383 9.10517C19.0139 9.10063 18.9892 9.09557 18.9669 9.09557L18.9404 9.0973C18.892 9.0973 18.8599 9.07063 18.8444 9.01797C18.8119 9.02903 18.7747 9.03063 18.7435 9.02597L19.0471 9.2605ZM20.6872 8.3677C20.7005 8.37237 20.7235 8.37743 20.7551 8.37743C20.8085 8.37743 20.8612 8.36303 20.886 8.34143C20.8944 8.3217 20.8764 8.29943 20.8407 8.2661C20.7679 8.19663 20.7748 8.09397 20.7877 8.05637C20.8025 8.01397 20.9863 7.84063 21.0945 7.74103C21.1609 7.67997 21.2184 7.62197 21.2679 7.56863C21.1824 7.5645 21.1633 7.48903 21.154 7.45223C21.1501 7.4369 21.1429 7.40823 21.1357 7.40463C21.1164 7.4025 21.0871 7.40917 21.0311 7.46917C21.0292 7.4781 21.0421 7.5177 21.0589 7.53717C21.0867 7.56943 21.0979 7.6169 21.0887 7.66437C21.0795 7.71183 21.0519 7.75063 21.0129 7.77077C20.9816 7.78703 20.9417 7.7873 20.9093 7.7773C20.9016 7.79197 20.8923 7.80837 20.8809 7.82597C20.8541 7.86783 20.8183 7.8741 20.7995 7.8741C20.7639 7.8741 20.7365 7.8541 20.7125 7.83637C20.6901 7.81983 20.6689 7.80437 20.6459 7.80437C20.6171 7.80543 20.6093 7.81157 20.5881 7.87463C20.5828 7.89077 20.5773 7.90663 20.5709 7.9213C20.564 7.93717 20.584 7.98143 20.5973 8.01063C20.6097 8.03797 20.6213 8.0645 20.6271 8.08823C20.6304 8.1009 20.6628 8.12877 20.6801 8.1437C20.7156 8.17423 20.7521 8.2057 20.7593 8.25037C20.7688 8.3101 20.7203 8.34437 20.6941 8.36263C20.692 8.36423 20.6897 8.36583 20.6872 8.3677ZM19.0004 7.5609C19.0499 7.5609 19.1071 7.67597 19.1733 7.7369C19.2816 7.83663 19.4655 8.01197 19.48 8.05423C19.4929 8.09143 19.5003 8.19517 19.4368 8.25583L19.4271 8.26557C19.3913 8.2989 19.3733 8.32143 19.3733 8.3321C19.4067 8.36263 19.4593 8.37717 19.5127 8.37717C19.5439 8.37717 19.5665 8.37223 19.5804 8.3673C19.578 8.36557 19.5757 8.3641 19.5739 8.36263C19.5477 8.34423 19.4991 8.3101 19.5087 8.25063C19.5157 8.20583 19.5524 8.17423 19.5879 8.1437C19.6052 8.12877 19.6376 8.1009 19.6409 8.08837C19.6467 8.06463 19.6581 8.0381 19.6707 8.0105C19.6839 7.9813 19.704 7.93717 19.6971 7.92143C19.6907 7.90677 19.6852 7.8909 19.6799 7.87477C19.6587 7.8117 19.6509 7.80543 19.6243 7.8045C19.6243 7.8045 19.6243 7.8045 19.6241 7.8045C19.5989 7.8045 19.5777 7.8201 19.5553 7.8365C19.5312 7.85423 19.504 7.87423 19.4684 7.87423C19.4495 7.87423 19.4137 7.86797 19.3869 7.8261C19.3757 7.8085 19.3663 7.7921 19.3585 7.7773C19.3261 7.78743 19.2863 7.78717 19.2549 7.77077C19.216 7.75063 19.1884 7.7117 19.1792 7.6641C19.1701 7.61677 19.1813 7.5693 19.2091 7.53717C19.2257 7.5177 19.2387 7.47823 19.2347 7.4661C19.1807 7.40903 19.1512 7.4025 19.1411 7.4025C19.1249 7.40823 19.1177 7.43277 19.1139 7.4481C19.1043 7.4861 19.0843 7.5609 19.0007 7.5609C19.0005 7.5609 19.0005 7.5609 19.0004 7.5609ZM21.1268 7.26917C21.1512 7.26917 21.1746 7.27477 21.1963 7.28583C21.2572 7.3169 21.2729 7.3785 21.2832 7.4193C21.2833 7.41997 21.2836 7.42077 21.2837 7.42157C21.2959 7.40823 21.3092 7.3881 21.3091 7.37157C21.3091 7.36343 21.3083 7.36157 21.2951 7.34797C21.2804 7.3329 21.2532 7.30477 21.2572 7.26037C21.2603 7.22583 21.2793 7.20197 21.3137 7.1893C21.3087 7.1769 21.2988 7.16303 21.2932 7.1613C21.2915 7.16197 21.2808 7.16797 21.2744 7.17157C21.2409 7.19037 21.1745 7.19957 21.1447 7.1537C21.1001 7.08597 21.0709 7.09517 21.0631 7.10503C21.0557 7.11397 21.054 7.12397 21.0547 7.12717C21.0793 7.1605 21.0825 7.2125 21.062 7.26343C21.0588 7.27143 21.0551 7.27903 21.0509 7.28637C21.0747 7.27583 21.0999 7.26917 21.1268 7.26917ZM18.9539 7.1893C18.9883 7.20197 19.0072 7.2257 19.0105 7.26037C19.0144 7.30477 18.9873 7.33277 18.9727 7.34783C18.9595 7.36143 18.9587 7.3633 18.9587 7.3713C18.9587 7.38757 18.9713 7.40717 18.9843 7.42063C18.9843 7.42023 18.9844 7.4197 18.9845 7.4193C18.9949 7.3785 19.0105 7.31677 19.0715 7.28583C19.1171 7.2625 19.1717 7.26623 19.2163 7.28623C19.2121 7.2789 19.2084 7.27117 19.2052 7.26317C19.1847 7.2121 19.188 7.1601 19.2143 7.1241C19.2133 7.12397 19.2115 7.11397 19.2043 7.1049C19.1963 7.09517 19.1673 7.0857 19.1225 7.1537C19.0925 7.19957 19.0264 7.1901 18.9928 7.1713C18.9865 7.1677 18.976 7.16183 18.9719 7.1613C18.968 7.1633 18.9583 7.17863 18.9539 7.1893Z" fill="#D12E18"/>
<path fill-rule="evenodd" clip-rule="evenodd" d="M20.1332 7.95446C20.1332 7.95446 20.0919 7.93752 20.0788 7.87752C20.0656 7.81739 20.0431 7.74619 19.9661 7.65419C19.8892 7.56219 19.9436 7.43086 20.0132 7.39699C20.0827 7.36326 20.1315 7.25806 20.1315 7.25806C20.1315 7.25806 20.1855 7.36312 20.2549 7.39699C20.3244 7.43086 20.3789 7.55939 20.3019 7.65139C20.2249 7.74326 20.2024 7.81606 20.1892 7.87619C20.1759 7.93619 20.1332 7.95446 20.1332 7.95446Z" fill="#EDB400"/>
<path d="M20.1338 8.02672L20.1079 8.01605C20.1004 8.01299 20.0338 7.98326 20.0136 7.89166C20.0026 7.84126 19.985 7.78045 19.915 7.69685C19.8687 7.64152 19.8519 7.57099 19.8675 7.49805C19.8828 7.42605 19.9275 7.36445 19.9839 7.33699C20.0198 7.31952 20.058 7.25725 20.0708 7.22979L20.1283 7.10779L20.1906 7.22739C20.2051 7.25539 20.247 7.31899 20.2839 7.33685C20.3406 7.36445 20.3852 7.42579 20.4004 7.49712C20.4158 7.56912 20.3988 7.63885 20.3527 7.69405C20.2832 7.77712 20.2654 7.83885 20.254 7.89019C20.2342 7.98112 20.167 8.01232 20.1594 8.01552L20.1338 8.02672ZM20.1331 7.37979C20.1091 7.40965 20.0784 7.43939 20.0423 7.45699C20.0263 7.46472 20.0054 7.49165 19.9979 7.52605C19.9931 7.54859 19.9924 7.58179 20.0172 7.61139C20.0862 7.69365 20.1167 7.76339 20.1338 7.82245C20.1507 7.76205 20.1814 7.69125 20.2506 7.60859C20.2752 7.57925 20.2747 7.54699 20.27 7.52512C20.2628 7.49139 20.2418 7.46485 20.2256 7.45699C20.1895 7.43939 20.158 7.40952 20.1331 7.37979Z" fill="#D12E18"/>
<path d="M19.8368 31.7074C19.8368 31.7074 20.2143 31.7161 20.4365 31.7133L19.8368 31.7074Z" fill="#EDB400"/>
<path d="M20.3357 31.7805C20.1171 31.7805 19.8385 31.7741 19.8352 31.7741L19.8383 31.6407C19.842 31.6409 20.2175 31.6495 20.4356 31.6466L20.4373 31.7799C20.4061 31.7803 20.3717 31.7805 20.3357 31.7805Z" fill="#D12E18"/>
<path d="M20.3879 31.5608H19.8546V31.6941H20.3879V31.5608Z" fill="#D12E18"/>
<path d="M19.7581 30.4514C19.7581 30.4514 20.0867 30.4454 20.5104 30.4522L19.7581 30.4514Z" fill="#EDB400"/>
<path d="M20.5094 30.5188C20.0919 30.5119 19.7627 30.5179 19.7595 30.518L19.757 30.3847C19.76 30.3847 20.0915 30.3786 20.5115 30.3855L20.5094 30.5188Z" fill="#D12E18"/>
<path d="M20.3879 30.0496H19.8545V30.1829H20.3879V30.0496Z" fill="#D12E18"/>
<path d="M19.8631 28.4103C19.8631 28.4103 20.0856 28.349 20.4047 28.4103H19.8631Z" fill="#EDB400"/>
<path d="M20.3921 28.4758C20.094 28.4184 19.8828 28.474 19.8807 28.4746L19.8453 28.3461C19.8551 28.3434 20.0867 28.2814 20.4173 28.3449L20.3921 28.4758Z" fill="#D12E18"/>
<path d="M20.3879 27.9161H19.9879V28.0495H20.3879V27.9161Z" fill="#D12E18"/>
<path d="M20.589 26.5417L20.5882 26.4083L19.6524 26.4138L19.6532 26.5472L20.589 26.5417Z" fill="#D12E18"/>
<path d="M19.7319 21.005C19.7319 21.005 20.0828 21.0662 20.5359 21.0049L19.7319 21.005Z" fill="#EDB400"/>
<path d="M20.124 21.099C19.8868 21.099 19.7302 21.0723 19.7204 21.0707L19.7434 20.9394C19.7466 20.94 20.0906 20.9979 20.527 20.9388L20.545 21.071C20.3894 21.0919 20.246 21.099 20.124 21.099Z" fill="#D12E18"/>
<path d="M19.6532 19.4095C19.6532 19.4095 19.9744 19.4043 20.6147 19.4085L19.6532 19.4095Z" fill="#EDB400"/>
<path d="M19.6543 19.4761L19.6522 19.3428C19.6554 19.3428 19.9814 19.3377 20.6151 19.3418L20.6142 19.4752C19.9823 19.4709 19.6575 19.476 19.6543 19.4761Z" fill="#D12E18"/>
<path d="M20.5409 18.9971H19.7268V19.1304H20.5409V18.9971Z" fill="#D12E18"/>
<path d="M20.3879 17.6942H19.8546V17.8275H20.3879V17.6942Z" fill="#D12E18"/>
<path d="M20.2403 11.9317L20.0305 11.9301L20.0294 12.0634L20.2393 12.065L20.2403 11.9317Z" fill="#D12E18"/>
<path d="M20.3437 11.3084L19.9182 11.3073L19.9178 11.4406L20.3433 11.4417L20.3437 11.3084Z" fill="#D12E18"/>
<path d="M20.3879 11.1774H19.9879V11.3107H20.3879V11.1774Z" fill="#D12E18"/>
<path d="M19.6277 10.1913C19.6277 10.1913 20.0883 10.3415 20.6689 10.1813L19.6277 10.1913Z" fill="#EDB400"/>
<path d="M20.1198 10.3223C19.8196 10.3223 19.6198 10.2588 19.6071 10.2547L19.6484 10.1279C19.6528 10.1293 20.0984 10.2696 20.6512 10.1171L20.6867 10.2456C20.4772 10.3033 20.2835 10.3223 20.1198 10.3223Z" fill="#D12E18"/>
<path d="M20.2546 8.89417C20.2546 8.89417 20.3558 8.89417 20.2862 8.89417C20.2167 8.89417 20.1295 8.99177 20.1295 8.99177C20.1295 8.99177 20.0478 8.89417 19.971 8.89417C19.8939 8.89417 19.8546 8.89417 19.8546 8.89417V8.36084H20.2546V8.89417Z" fill="#EDB400"/>
<path d="M20.128 9.02647L20.0786 8.96807C20.0523 8.93714 20.0004 8.89421 19.971 8.89421H19.8546V8.22754H20.3879V8.89421H20.2862C20.2638 8.89421 20.2112 8.93407 20.1791 8.96967L20.128 9.02647ZM19.9879 8.76181C20.0436 8.76767 20.0946 8.80127 20.1304 8.83194C20.1632 8.80447 20.2078 8.77447 20.2546 8.76434V8.36087H19.9879V8.76181Z" fill="#D12E18"/>
<rect x="0.5" y="0.5" width="39" height="39" rx="7.5" stroke="white"/>
</svg>
