<svg width="40" height="82" viewBox="0 0 40 82" fill="none" xmlns="http://www.w3.org/2000/svg">
<g clip-path="url(#clip0_202_1210)">
<path d="M32.5 28C32.5 31.3152 31.183 34.4946 28.8388 36.8388C26.4946 39.183 23.3152 40.5 20 40.5C16.6848 40.5 13.5054 39.183 11.1612 36.8388C8.81696 34.4946 7.5 31.3152 7.5 28V13C7.5 9.68479 8.81696 6.50537 11.1612 4.16117C13.5054 1.81696 16.6848 0.5 20 0.5C23.3152 0.5 26.4946 1.81696 28.8388 4.16117C31.183 6.50537 32.5 9.68479 32.5 13V28ZM18.75 31.75C18.75 32.0815 18.8817 32.3995 19.1161 32.6339C19.3505 32.8683 19.6685 33 20 33C20.3315 33 20.6495 32.8683 20.8839 32.6339C21.1183 32.3995 21.25 32.0815 21.25 31.75V26.75C21.25 26.4185 21.1183 26.1005 20.8839 25.8661C20.6495 25.6317 20.3315 25.5 20 25.5C19.6685 25.5 19.3505 25.6317 19.1161 25.8661C18.8817 26.1005 18.75 26.4185 18.75 26.75V31.75Z" fill="url(#paint0_linear_202_1210)"/>
</g>
<path d="M19.2929 81.2071C19.6834 81.5976 20.3166 81.5976 20.7071 81.2071L27.0711 74.8431C27.4616 74.4526 27.4616 73.8195 27.0711 73.4289C26.6805 73.0384 26.0474 73.0384 25.6569 73.4289L20 79.0858L14.3431 73.4289C13.9526 73.0384 13.3195 73.0384 12.9289 73.4289C12.5384 73.8195 12.5384 74.4526 12.9289 74.8431L19.2929 81.2071ZM19 48.5L19 80.5L21 80.5L21 48.5L19 48.5Z" fill="url(#paint1_linear_202_1210)"/>
<defs>
<linearGradient id="paint0_linear_202_1210" x1="7.56851" y1="0.500002" x2="39.437" y2="7.20548" gradientUnits="userSpaceOnUse">
<stop stop-color="#54CEEC"/>
<stop offset="1" stop-color="#599CF6"/>
</linearGradient>
<linearGradient id="paint1_linear_202_1210" x1="20" y1="48.5877" x2="16.0797" y2="48.9516" gradientUnits="userSpaceOnUse">
<stop stop-color="#54CEEC"/>
<stop offset="1" stop-color="#599CF6"/>
</linearGradient>
<clipPath id="clip0_202_1210">
<rect width="40" height="40" fill="white" transform="translate(0 0.5)"/>
</clipPath>
</defs>
</svg>
