<svg width="428" height="902" viewBox="0 0 428 902" fill="none" xmlns="http://www.w3.org/2000/svg">
<g opacity="0.64" filter="url(#filter0_f_114_1681)">
<ellipse cx="274.124" cy="460.315" rx="133.488" ry="269.859" transform="rotate(-31.2528 274.124 460.315)" fill="url(#paint0_linear_114_1681)" fill-opacity="0.6"/>
</g>
<g opacity="0.64" filter="url(#filter1_f_114_1681)">
<circle cx="414.826" cy="350.408" r="149.922" transform="rotate(16.9828 414.826 350.408)" fill="url(#paint1_linear_114_1681)" fill-opacity="0.4"/>
</g>
<g filter="url(#filter2_b_114_1681)">
<path d="M4.98512 206.14C2.37914 181.497 22.577 160.438 47.3066 162.014L388.46 183.75C410.358 185.145 427.044 203.921 425.858 225.831L407.123 571.87C406.083 591.073 391.527 606.818 372.465 609.358L92.8789 646.611C70.5601 649.585 50.1855 633.559 47.8176 611.168L4.98512 206.14Z" fill="url(#paint2_linear_114_1681)" fill-opacity="0.48"/>
<path d="M4.98512 206.14C2.37914 181.497 22.577 160.438 47.3066 162.014L388.46 183.75C410.358 185.145 427.044 203.921 425.858 225.831L407.123 571.87C406.083 591.073 391.527 606.818 372.465 609.358L92.8789 646.611C70.5601 649.585 50.1855 633.559 47.8176 611.168L4.98512 206.14Z" fill="url(#paint3_radial_114_1681)" fill-opacity="0.4"/>
<path d="M47.2113 163.511L388.365 185.247C409.441 186.59 425.502 204.661 424.36 225.75L405.625 571.789C404.625 590.272 390.614 605.426 372.266 607.871L92.6807 645.124C71.199 647.986 51.5884 632.562 49.3093 611.01L6.4768 205.982C3.96855 182.264 23.409 161.994 47.2113 163.511Z" stroke="url(#paint4_linear_114_1681)" stroke-opacity="0.24" stroke-width="3"/>
<path d="M47.2113 163.511L388.365 185.247C409.441 186.59 425.502 204.661 424.36 225.75L405.625 571.789C404.625 590.272 390.614 605.426 372.266 607.871L92.6807 645.124C71.199 647.986 51.5884 632.562 49.3093 611.01L6.4768 205.982C3.96855 182.264 23.409 161.994 47.2113 163.511Z" stroke="url(#paint5_linear_114_1681)" stroke-width="3"/>
</g>
<defs>
<filter id="filter0_f_114_1681" x="-106.505" y="19.3815" width="761.257" height="881.866" filterUnits="userSpaceOnUse" color-interpolation-filters="sRGB">
<feFlood flood-opacity="0" result="BackgroundImageFix"/>
<feBlend mode="normal" in="SourceGraphic" in2="BackgroundImageFix" result="shape"/>
<feGaussianBlur stdDeviation="100" result="effect1_foregroundBlur_114_1681"/>
</filter>
<filter id="filter1_f_114_1681" x="64.8652" y="0.446289" width="699.922" height="699.923" filterUnits="userSpaceOnUse" color-interpolation-filters="sRGB">
<feFlood flood-opacity="0" result="BackgroundImageFix"/>
<feBlend mode="normal" in="SourceGraphic" in2="BackgroundImageFix" result="shape"/>
<feGaussianBlur stdDeviation="100" result="effect1_foregroundBlur_114_1681"/>
</filter>
<filter id="filter2_b_114_1681" x="-11.2417" y="145.931" width="453.159" height="517.035" filterUnits="userSpaceOnUse" color-interpolation-filters="sRGB">
<feFlood flood-opacity="0" result="BackgroundImageFix"/>
<feGaussianBlur in="BackgroundImage" stdDeviation="8"/>
<feComposite in2="SourceAlpha" operator="in" result="effect1_backgroundBlur_114_1681"/>
<feBlend mode="normal" in="SourceGraphic" in2="effect1_backgroundBlur_114_1681" result="shape"/>
</filter>
<linearGradient id="paint0_linear_114_1681" x1="140.636" y1="585.607" x2="408.18" y2="579.541" gradientUnits="userSpaceOnUse">
<stop stop-color="#0091E2"/>
<stop offset="1" stop-color="#93A9FA"/>
</linearGradient>
<linearGradient id="paint1_linear_114_1681" x1="264.905" y1="420.014" x2="564.911" y2="406.263" gradientUnits="userSpaceOnUse">
<stop stop-color="#FF7A00"/>
<stop offset="1" stop-color="#FFB800"/>
</linearGradient>
<linearGradient id="paint2_linear_114_1681" x1="15.6416" y1="186.269" x2="515.217" y2="345.661" gradientUnits="userSpaceOnUse">
<stop stop-color="#54CEEC"/>
<stop offset="1" stop-color="#599CF6"/>
</linearGradient>
<radialGradient id="paint3_radial_114_1681" cx="0" cy="0" r="1" gradientUnits="userSpaceOnUse" gradientTransform="translate(365.316 229.535) rotate(128.764) scale(245.899 262.14)">
<stop stop-color="white"/>
<stop offset="1" stop-color="white" stop-opacity="0"/>
</radialGradient>
<linearGradient id="paint4_linear_114_1681" x1="15.6416" y1="186.269" x2="515.217" y2="345.661" gradientUnits="userSpaceOnUse">
<stop stop-color="#54CEEC"/>
<stop offset="1" stop-color="#599CF6"/>
</linearGradient>
<linearGradient id="paint5_linear_114_1681" x1="428" y1="186.724" x2="105.758" y2="682.354" gradientUnits="userSpaceOnUse">
<stop offset="0.0989583" stop-color="white"/>
<stop offset="0.286458" stop-color="white" stop-opacity="0.3"/>
<stop offset="0.635417" stop-color="white" stop-opacity="0.34104"/>
<stop offset="0.84375" stop-color="white"/>
<stop offset="0.911458" stop-color="white" stop-opacity="0.0982659"/>
<stop offset="1" stop-color="white" stop-opacity="0"/>
</linearGradient>
</defs>
</svg>
