<svg width="64" height="64" viewBox="0 0 64 64" fill="none" xmlns="http://www.w3.org/2000/svg">
<path fill-rule="evenodd" clip-rule="evenodd" d="M11.8643 0.000244141C5.39374 0.000244141 0.148315 5.25993 0.148315 11.7481V52.1063C0.148315 58.5945 5.39374 63.8542 11.8643 63.8542H52.1132C58.5838 63.8542 63.8292 58.5945 63.8292 52.1063V11.7481C63.8292 5.25993 58.5838 0.000244141 52.1132 0.000244141H11.8643Z" fill="#00C6FB"/>
<path d="M14.4249 44.217C14.3461 43.9906 14.3056 43.7525 14.3052 43.5126V35.97C14.3052 35.3935 14.5337 34.8405 14.9402 34.4328C15.3468 34.0252 15.8983 33.7961 16.4733 33.7961C17.0483 33.7961 17.5997 34.0252 18.0063 34.4328C18.4129 34.8405 18.6413 35.3935 18.6413 35.97V42.4813L22.457 40.9161C22.2843 40.6489 22.1725 40.3468 22.1294 40.0313C22.0863 39.7158 22.113 39.3947 22.2076 39.0907C22.3022 38.7868 22.4624 38.5074 22.6769 38.2726C22.8913 38.0377 23.1547 37.853 23.4483 37.7317C23.7419 37.6104 24.0586 37.5555 24.3758 37.5707C24.693 37.586 25.0029 37.6711 25.2836 37.82C25.5643 37.9689 25.8089 38.178 25.9999 38.4323C26.1909 38.6867 26.3238 38.9801 26.3889 39.2918L29.8977 37.8448V35.97C29.9136 35.4053 30.1486 34.869 30.5526 34.4752C30.9566 34.0813 31.4979 33.861 32.0613 33.861C32.6248 33.861 33.1661 34.0813 33.5701 34.4752C33.9741 34.869 34.2091 35.4053 34.225 35.97V37.8326L37.7338 39.2813C37.7994 38.9702 37.9326 38.6773 38.1237 38.4235C38.3149 38.1697 38.5594 37.9612 38.8399 37.8127C39.1204 37.6642 39.43 37.5794 39.7469 37.5642C40.0637 37.5491 40.38 37.6041 40.6733 37.7252C40.9666 37.8463 41.2297 38.0306 41.444 38.2651C41.6584 38.4995 41.8186 38.7784 41.9135 39.0819C42.0084 39.3854 42.0355 39.7061 41.993 40.0212C41.9504 40.3364 41.8393 40.6384 41.6674 40.9057L45.4831 42.4709V35.97C45.4831 35.3949 45.711 34.8432 46.1166 34.4365C46.5222 34.0298 47.0723 33.8013 47.646 33.8013C48.2196 33.8013 48.7697 34.0298 49.1753 34.4365C49.5809 34.8432 49.8088 35.3949 49.8088 35.97V43.5126C49.8074 43.7494 49.7676 43.9844 49.6908 44.2083L62.1422 49.3474V11.8483C62.142 10.5374 61.884 9.23943 61.383 8.02862C60.8821 6.8178 60.1479 5.71791 59.2226 4.79187C58.2973 3.86582 57.199 3.13179 55.9905 2.63178C54.782 2.13176 53.487 1.87557 52.1797 1.87785H11.9412C10.6343 1.87602 9.33979 2.13257 8.1318 2.63281C6.9238 3.13305 5.82601 3.86718 4.90121 4.7932C3.97641 5.71923 3.24274 6.81898 2.74217 8.02955C2.2416 9.24013 1.98395 10.5378 1.98395 11.8483V49.3526L14.4249 44.217ZM47.6234 27.5874C48.0512 27.5874 48.4693 27.7146 48.825 27.9529C49.1807 28.1912 49.4579 28.5299 49.6216 28.9262C49.7853 29.3225 49.8281 29.7585 49.7447 30.1792C49.6612 30.5999 49.4552 30.9863 49.1527 31.2896C48.8503 31.5929 48.4649 31.7995 48.0454 31.8831C47.6258 31.9668 47.1909 31.9239 46.7957 31.7597C46.4005 31.5956 46.0627 31.3176 45.8251 30.961C45.5874 30.6043 45.4606 30.185 45.4606 29.7561C45.4606 29.4713 45.5165 29.1893 45.6252 28.9262C45.7339 28.6631 45.8932 28.424 46.0941 28.2226C46.2949 28.0212 46.5333 27.8615 46.7957 27.7525C47.0581 27.6435 47.3394 27.5874 47.6234 27.5874ZM39.8341 17.61C40.2624 17.6097 40.6811 17.7367 41.0374 17.9751C41.3936 18.2134 41.6713 18.5524 41.8353 18.9491C41.9994 19.3457 42.0424 19.7823 41.9589 20.2035C41.8755 20.6247 41.6693 21.0115 41.3664 21.3152C41.0636 21.6188 40.6778 21.8256 40.2577 21.9093C39.8377 21.993 39.4023 21.9498 39.0067 21.7854C38.6111 21.6209 38.2731 21.3424 38.0354 20.9852C37.7977 20.628 37.671 20.2081 37.6713 19.7787C37.6713 19.2036 37.8992 18.6519 38.3048 18.2452C38.7104 17.8385 39.2605 17.61 39.8341 17.61ZM37.6713 25.9944C37.6713 25.4192 37.8992 24.8676 38.3048 24.4609C38.7104 24.0542 39.2605 23.8257 39.8341 23.8257C40.4078 23.8257 40.9579 24.0542 41.3635 24.4609C41.7691 24.8676 41.997 25.4192 41.997 25.9944V33.5352C41.997 34.1104 41.7691 34.662 41.3635 35.0687C40.9579 35.4755 40.4078 35.7039 39.8341 35.7039C39.2605 35.7039 38.7104 35.4755 38.3048 35.0687C37.8992 34.662 37.6713 34.1104 37.6713 33.5352V25.9944ZM32.0466 7.63438C32.4743 7.63472 32.8923 7.7622 33.2477 8.00071C33.6032 8.23922 33.8801 8.57804 34.0435 8.97435C34.207 9.37066 34.2496 9.80666 34.1659 10.2272C34.0823 10.6478 33.8761 11.0341 33.5736 11.3372C33.2711 11.6403 32.8857 11.8467 32.4662 11.9302C32.0467 12.0138 31.6119 11.9707 31.2168 11.8065C30.8217 11.6423 30.484 11.3644 30.2464 11.0078C30.0089 10.6512 29.8821 10.2319 29.8821 9.80307C29.8821 9.51813 29.9381 9.23598 30.0469 8.97275C30.1557 8.70951 30.3151 8.47036 30.5161 8.26896C30.7172 8.06755 30.9558 7.90784 31.2184 7.79896C31.481 7.69007 31.7624 7.63415 32.0466 7.63438ZM29.8821 16.017C29.898 15.4522 30.133 14.9159 30.537 14.5221C30.941 14.1283 31.4823 13.908 32.0457 13.908C32.6092 13.908 33.1505 14.1283 33.5545 14.5221C33.9585 14.9159 34.1935 15.4522 34.2094 16.017V23.5596C34.1935 24.1244 33.9585 24.6606 33.5545 25.0545C33.1505 25.4483 32.6092 25.6686 32.0457 25.6686C31.4823 25.6686 30.941 25.4483 30.537 25.0545C30.133 24.6606 29.898 24.1244 29.8821 23.5596V16.017ZM32.0466 27.5874C32.4743 27.5878 32.8923 27.7153 33.2477 27.9538C33.6032 28.1923 33.8801 28.5311 34.0435 28.9274C34.207 29.3237 34.2496 29.7597 34.1659 30.1803C34.0823 30.6008 33.8761 30.9871 33.5736 31.2902C33.2711 31.5934 32.8857 31.7997 32.4662 31.8833C32.0467 31.9668 31.6119 31.9238 31.2168 31.7596C30.8217 31.5954 30.484 31.3174 30.2464 30.9608C30.0089 30.6042 29.8821 30.185 29.8821 29.7561C29.8821 29.4712 29.9381 29.189 30.0469 28.9258C30.1557 28.6626 30.3151 28.4234 30.5161 28.222C30.7172 28.0206 30.9558 27.8609 31.2184 27.752C31.481 27.6431 31.7624 27.5872 32.0466 27.5874ZM24.2556 17.61C24.6839 17.6097 25.1026 17.7367 25.4588 17.9751C25.815 18.2134 26.0927 18.5524 26.2568 18.9491C26.4208 19.3457 26.4638 19.7823 26.3804 20.2035C26.2969 20.6247 26.0907 21.0115 25.7879 21.3152C25.4851 21.6188 25.0992 21.8256 24.6792 21.9093C24.2592 21.993 23.8238 21.9498 23.4282 21.7854C23.0326 21.6209 22.6946 21.3424 22.4569 20.9852C22.2191 20.628 22.0924 20.2081 22.0928 19.7787C22.0928 19.2036 22.3207 18.6519 22.7263 18.2452C23.1319 17.8385 23.682 17.61 24.2556 17.61ZM22.0928 25.9944C22.0928 25.4192 22.3207 24.8676 22.7263 24.4609C23.1319 24.0542 23.682 23.8257 24.2556 23.8257C24.8292 23.8257 25.3793 24.0542 25.7849 24.4609C26.1906 24.8676 26.4184 25.4192 26.4184 25.9944V33.5352C26.4184 34.1104 26.1906 34.662 25.7849 35.0687C25.3793 35.4755 24.8292 35.7039 24.2556 35.7039C23.682 35.7039 23.1319 35.4755 22.7263 35.0687C22.3207 34.662 22.0928 34.1104 22.0928 33.5352V25.9944ZM16.4681 27.5874C16.8958 27.5874 17.314 27.7146 17.6697 27.9529C18.0253 28.1912 18.3026 28.5299 18.4663 28.9262C18.63 29.3225 18.6728 29.7585 18.5893 30.1792C18.5059 30.5999 18.2999 30.9863 17.9974 31.2896C17.6949 31.5929 17.3096 31.7995 16.89 31.8831C16.4705 31.9668 16.0356 31.9239 15.6404 31.7597C15.2452 31.5956 14.9074 31.3176 14.6698 30.961C14.4321 30.6043 14.3052 30.185 14.3052 29.7561C14.3052 29.1809 14.5331 28.6293 14.9387 28.2226C15.3443 27.8159 15.8945 27.5874 16.4681 27.5874Z" fill="white"/>
<path fill-rule="evenodd" clip-rule="evenodd" d="M62.0553 50.5759L32.6411 38.4344V62.1736H52.1119C57.6035 62.1736 62.0553 57.7097 62.0553 52.2031V50.5759ZM31.4601 62.1736V38.4344L1.91956 50.6281V52.2031C1.91956 57.7097 6.37137 62.1736 11.863 62.1736H31.4601Z" fill="white"/>
</svg>
