<svg width="40" height="40" viewBox="0 0 40 40" fill="none" xmlns="http://www.w3.org/2000/svg">
<path fill-rule="evenodd" clip-rule="evenodd" d="M12.6667 30.6666C13.5507 30.6666 14.3986 30.3154 15.0237 29.6903C15.6488 29.0652 16 28.2173 16 27.3333C16 26.4492 15.6488 25.6014 15.0237 24.9763C14.3986 24.3511 13.5507 24 12.6667 24C11.7826 24 10.9348 24.3511 10.3096 24.9763C9.68452 25.6014 9.33333 26.4492 9.33333 27.3333C9.33333 28.2173 9.68452 29.0652 10.3096 29.6903C10.9348 30.3154 11.7826 30.6666 12.6667 30.6666ZM12.6667 32C13.9043 32 15.0913 31.5083 15.9665 30.6331C16.8417 29.758 17.3333 28.571 17.3333 27.3333C17.3333 26.0956 16.8417 24.9086 15.9665 24.0335C15.0913 23.1583 13.9043 22.6666 12.6667 22.6666C11.429 22.6666 10.242 23.1583 9.36684 24.0335C8.49167 24.9086 8 26.0956 8 27.3333C8 28.571 8.49167 29.758 9.36684 30.6331C10.242 31.5083 11.429 32 12.6667 32Z" fill="white"/>
<path d="M13.8333 27.3333C13.8333 27.6427 13.7104 27.9395 13.4916 28.1583C13.2728 28.377 12.9761 28.5 12.6667 28.5C12.3572 28.5 12.0605 28.377 11.8417 28.1583C11.6229 27.9395 11.5 27.6427 11.5 27.3333C11.5 27.0239 11.6229 26.7271 11.8417 26.5083C12.0605 26.2895 12.3572 26.1666 12.6667 26.1666C12.9761 26.1666 13.2728 26.2895 13.4916 26.5083C13.7104 26.7271 13.8333 27.0239 13.8333 27.3333Z" fill="white"/>
<path fill-rule="evenodd" clip-rule="evenodd" d="M27.3333 30.6666C28.2174 30.6666 29.0652 30.3154 29.6903 29.6903C30.3155 29.0652 30.6667 28.2173 30.6667 27.3333C30.6667 26.4492 30.3155 25.6014 29.6903 24.9763C29.0652 24.3511 28.2174 24 27.3333 24C26.4493 24 25.6014 24.3511 24.9763 24.9763C24.3512 25.6014 24 26.4492 24 27.3333C24 28.2173 24.3512 29.0652 24.9763 29.6903C25.6014 30.3154 26.4493 30.6666 27.3333 30.6666ZM27.3333 32C28.571 32 29.758 31.5083 30.6332 30.6331C31.5083 29.758 32 28.571 32 27.3333C32 26.0956 31.5083 24.9086 30.6332 24.0335C29.758 23.1583 28.571 22.6666 27.3333 22.6666C26.0956 22.6666 24.9087 23.1583 24.0335 24.0335C23.1583 24.9086 22.6667 26.0956 22.6667 27.3333C22.6667 28.571 23.1583 29.758 24.0335 30.6331C24.9087 31.5083 26.0956 32 27.3333 32Z" fill="white"/>
<path d="M28.5 27.3333C28.5 27.6427 28.3771 27.9395 28.1583 28.1583C27.9395 28.377 27.6427 28.5 27.3333 28.5C27.0239 28.5 26.7272 28.377 26.5084 28.1583C26.2896 27.9395 26.1667 27.6427 26.1667 27.3333C26.1667 27.0239 26.2896 26.7271 26.5084 26.5083C26.7272 26.2895 27.0239 26.1666 27.3333 26.1666C27.6427 26.1666 27.9395 26.2895 28.1583 26.5083C28.3771 26.7271 28.5 27.0239 28.5 27.3333Z" fill="white"/>
<path fill-rule="evenodd" clip-rule="evenodd" d="M27.3333 16C28.2174 16 29.0652 15.6488 29.6903 15.0237C30.3155 14.3986 30.6667 13.5507 30.6667 12.6667C30.6667 11.7826 30.3155 10.9348 29.6903 10.3096C29.0652 9.68452 28.2174 9.33333 27.3333 9.33333C26.4493 9.33333 25.6014 9.68452 24.9763 10.3096C24.3512 10.9348 24 11.7826 24 12.6667C24 13.5507 24.3512 14.3986 24.9763 15.0237C25.6014 15.6488 26.4493 16 27.3333 16ZM27.3333 17.3333C27.9462 17.3333 28.553 17.2126 29.1192 16.9781C29.6854 16.7436 30.1998 16.3998 30.6332 15.9665C31.0665 15.5332 31.4102 15.0187 31.6448 14.4525C31.8793 13.8863 32 13.2795 32 12.6667C32 12.0538 31.8793 11.447 31.6448 10.8808C31.4102 10.3146 31.0665 9.80018 30.6332 9.36684C30.1998 8.9335 29.6854 8.58975 29.1192 8.35523C28.553 8.12071 27.9462 8 27.3333 8C26.0956 8 24.9087 8.49167 24.0335 9.36684C23.1583 10.242 22.6667 11.429 22.6667 12.6667C22.6667 13.9043 23.1583 15.0913 24.0335 15.9665C24.9087 16.8417 26.0956 17.3333 27.3333 17.3333Z" fill="white"/>
<path d="M28.5 12.6667C28.5 12.9761 28.3771 13.2728 28.1583 13.4916C27.9395 13.7104 27.6427 13.8333 27.3333 13.8333C27.0239 13.8333 26.7272 13.7104 26.5084 13.4916C26.2896 13.2728 26.1667 12.9761 26.1667 12.6667C26.1667 12.3572 26.2896 12.0605 26.5084 11.8417C26.7272 11.6229 27.0239 11.5 27.3333 11.5C27.6427 11.5 27.9395 11.6229 28.1583 11.8417C28.3771 12.0605 28.5 12.3572 28.5 12.6667Z" fill="white"/>
<path fill-rule="evenodd" clip-rule="evenodd" d="M12.6667 16C13.5507 16 14.3986 15.6488 15.0237 15.0237C15.6488 14.3986 16 13.5507 16 12.6667C16 11.7826 15.6488 10.9348 15.0237 10.3096C14.3986 9.68452 13.5507 9.33333 12.6667 9.33333C11.7826 9.33333 10.9348 9.68452 10.3096 10.3096C9.68452 10.9348 9.33333 11.7826 9.33333 12.6667C9.33333 13.5507 9.68452 14.3986 10.3096 15.0237C10.9348 15.6488 11.7826 16 12.6667 16ZM12.6667 17.3333C13.2795 17.3333 13.8863 17.2126 14.4525 16.9781C15.0187 16.7436 15.5332 16.3998 15.9665 15.9665C16.3998 15.5332 16.7436 15.0187 16.9781 14.4525C17.2126 13.8863 17.3333 13.2795 17.3333 12.6667C17.3333 12.0538 17.2126 11.447 16.9781 10.8808C16.7436 10.3146 16.3998 9.80018 15.9665 9.36684C15.5332 8.9335 15.0187 8.58975 14.4525 8.35523C13.8863 8.12071 13.2795 8 12.6667 8C11.429 8 10.242 8.49167 9.36684 9.36684C8.49167 10.242 8 11.429 8 12.6667C8 13.9043 8.49167 15.0913 9.36684 15.9665C10.242 16.8417 11.429 17.3333 12.6667 17.3333Z" fill="white"/>
<path d="M13.8333 12.6667C13.8333 12.9761 13.7104 13.2728 13.4916 13.4916C13.2728 13.7104 12.9761 13.8333 12.6667 13.8333C12.3572 13.8333 12.0605 13.7104 11.8417 13.4916C11.6229 13.2728 11.5 12.9761 11.5 12.6667C11.5 12.3572 11.6229 12.0605 11.8417 11.8417C12.0605 11.6229 12.3572 11.5 12.6667 11.5C12.9761 11.5 13.2728 11.6229 13.4916 11.8417C13.7104 12.0605 13.8333 12.3572 13.8333 12.6667Z" fill="white"/>
<path d="M12.6667 27.3333L16.48 19.8506L12.96 12.6666L20 16.2586L27.04 12.6666L23.52 19.8506L27.3333 27.3333L20 23.442L12.6667 27.3333Z" fill="white"/>
<rect x="0.5" y="0.5" width="39" height="39" rx="7.5" stroke="white"/>
</svg>
